<svg xmlns="http://www.w3.org/2000/svg" width="246" height="246" viewBox="0 0 246 246">
  <g id="前面オブジェクトで型抜き_3" data-name="前面オブジェクトで型抜き 3" transform="translate(909 273)" fill="#c7c7c7">
    <path d="M -772.5003051757813 -28.50000381469727 L -774 -28.50000381469727 L -798.0003051757813 -28.50000381469727 L -799.5 -28.50000381469727 L -799.5 -28.55919075012207 L -800.5504760742188 -28.88916015625 C -802.2386474609375 -29.41941070556641 -803.7545776367188 -30.49753570556641 -804.819091796875 -31.92494201660156 C -805.9189453125 -33.39972305297852 -806.5003051757813 -35.15459823608398 -806.5003051757813 -36.99990844726563 L -806.5003051757813 -61.82009887695313 L -806.5003051757813 -62.98469161987305 L -807.6285400390625 -63.2733154296875 C -816.1703491210938 -65.45831298828125 -824.3255004882813 -68.90518951416016 -831.86767578125 -73.51812744140625 L -832.8756103515625 -74.13459777832031 L -833.7109985351563 -73.29912567138672 L -851.40771484375 -55.60153579711914 C -853.0131225585938 -53.99572372436523 -855.1475219726563 -53.11140823364258 -857.4178466796875 -53.11140823364258 C -859.688232421875 -53.11140823364258 -861.8226318359375 -53.99572372436523 -863.4279174804688 -55.6014404296875 L -880.3984375 -72.57193756103516 C -882.0043334960938 -74.17744445800781 -882.8886108398438 -76.31188201904297 -882.8886108398438 -78.58216094970703 C -882.8886108398438 -80.85247039794922 -882.0043334960938 -82.98687744140625 -880.3985595703125 -84.59222412109375 L -862.4515380859375 -102.5392532348633 L -861.6298217773438 -103.360969543457 L -862.22021484375 -104.3619384765625 C -866.6386108398438 -111.8533477783203 -869.9198608398438 -119.9257202148438 -871.9728393554688 -128.3547821044922 L -872.2517700195313 -129.4998168945313 L -873.4302368164063 -129.4998168945313 L -899.0001220703125 -129.4998168945313 C -903.6869506835938 -129.4998168945313 -907.5 -133.3128509521484 -907.5 -137.9997253417969 L -907.5 -162 C -907.5 -166.6868743896484 -903.6869506835938 -170.4999084472656 -899.0001220703125 -170.4999084472656 L -873.180908203125 -170.4999084472656 L -872.0164184570313 -170.4999084472656 L -871.7277221679688 -171.6280670166016 C -869.6023559570313 -179.9339447021484 -866.2802734375 -187.8831939697266 -861.8536987304688 -195.2550048828125 L -861.2505493164063 -196.2594146728516 L -862.0789794921875 -197.0878448486328 L -880.3984375 -215.4073791503906 C -882.0043334960938 -217.0128479003906 -882.8886108398438 -219.1472778320313 -882.8886108398438 -221.4176635742188 C -882.8886108398438 -223.6880950927734 -882.0042724609375 -225.8228149414063 -880.3984375 -227.4286346435547 L -863.4280395507813 -244.3990325927734 C -861.8226928710938 -246.0044097900391 -859.688232421875 -246.8885345458984 -857.4178466796875 -246.8885345458984 C -855.1474609375 -246.8885345458984 -853.0130004882813 -246.0044097900391 -851.4076538085938 -244.3990325927734 L -833.0881958007813 -226.0795593261719 L -832.259765625 -225.2511291503906 L -831.2553100585938 -225.854248046875 C -823.8820190429688 -230.2818756103516 -815.9328002929688 -233.6039733886719 -807.6284790039063 -235.7282867431641 L -806.500244140625 -236.0169067382813 L -806.500244140625 -237.1815032958984 L -806.5003051757813 -262.9998168945313 C -806.5003051757813 -264.8458557128906 -805.9189453125 -266.6011047363281 -804.819091796875 -268.0758666992188 C -803.7547607421875 -269.5030517578125 -802.2388305664063 -270.5810852050781 -800.5504760742188 -271.1114501953125 L -799.5 -271.44140625 L -799.5 -271.4996948242188 L -772.5003051757813 -271.4996948242188 L -772.5003051757813 -271.44140625 L -771.4498291015625 -271.1114501953125 C -769.7615966796875 -270.5811462402344 -768.24560546875 -269.5030822753906 -767.18115234375 -268.0758361816406 C -766.0813598632813 -266.6011962890625 -765.5000610351563 -264.8459167480469 -765.5000610351563 -262.9998168945313 L -765.5000610351563 -237.4316864013672 L -765.5000610351563 -236.2532806396484 L -764.3551635742188 -235.9743194580078 C -755.9263916015625 -233.9205627441406 -747.8539428710938 -230.6392822265625 -740.3621215820313 -226.2216033935547 L -739.3612060546875 -225.6314086914063 L -738.5396118164063 -226.4530029296875 L -720.5927124023438 -244.3990020751953 C -718.9873046875 -246.0044097900391 -716.8528442382813 -246.8885345458984 -714.5824584960938 -246.8885345458984 C -712.3120727539063 -246.8885345458984 -710.1776123046875 -246.0044097900391 -708.572265625 -244.3990325927734 L -691.6009521484375 -227.4286041259766 C -688.2870483398438 -224.1139984130859 -688.2869873046875 -218.7212829589844 -691.6009521484375 -215.4074096679688 L -709.2976684570313 -197.7106628417969 L -710.133056640625 -196.8752899169922 L -709.5166625976563 -195.8674163818359 C -704.90478515625 -188.3263854980469 -701.4578857421875 -180.1710662841797 -699.2717895507813 -171.6280364990234 L -698.9830932617188 -170.4999084472656 L -697.818603515625 -170.4999084472656 L -673.000244140625 -170.4999084472656 C -668.3133544921875 -170.4999084472656 -664.5003051757813 -166.6868743896484 -664.5003051757813 -162 L -664.5003051757813 -137.9997253417969 C -664.5003051757813 -133.3128509521484 -668.3133544921875 -129.4998168945313 -673.000244140625 -129.4998168945313 L -697.5693359375 -129.4998168945313 L -698.747802734375 -129.4998168945313 L -699.0267333984375 -128.3548736572266 C -701.13720703125 -119.6920623779297 -704.541748046875 -111.4123764038086 -709.1458740234375 -103.7457504272461 L -709.7490844726563 -102.7413482666016 L -708.9205932617188 -101.9128799438477 L -691.6010131835938 -84.59237670898438 C -689.99560546875 -82.98696899414063 -689.1115112304688 -80.85253143310547 -689.1115112304688 -78.58216094970703 C -689.1115112304688 -76.31178283691406 -689.99560546875 -74.17731475830078 -691.6010131835938 -72.57193756103516 L -708.5722045898438 -55.60159683227539 C -710.1776123046875 -53.99619293212891 -712.3120727539063 -53.11206436157227 -714.5824584960938 -53.11206436157227 C -716.8528442382813 -53.11206436157227 -718.9873046875 -53.99619293212891 -720.5926513671875 -55.60156631469727 L -737.9122314453125 -72.92115783691406 L -738.7406616210938 -73.74959564208984 L -739.7451171875 -73.14646911621094 C -747.4127197265625 -68.54228210449219 -755.6927490234375 -65.13768768310547 -764.3551635742188 -63.02728652954102 L -765.5001220703125 -62.74834823608398 L -765.5001220703125 -61.56990814208984 L -765.5000610351563 -36.99990844726563 C -765.5000610351563 -35.15453338623047 -766.0813598632813 -33.39962768554688 -767.1812133789063 -31.92494201660156 C -768.2457275390625 -30.49756622314453 -769.7616577148438 -29.41941070556641 -771.4498291015625 -28.88916015625 L -772.5003051757813 -28.55919075012207 L -772.5003051757813 -28.50000381469727 Z M -785.9996948242188 -198.5000915527344 C -814.3970947265625 -198.5000915527344 -837.5000610351563 -175.3975067138672 -837.5000610351563 -147.0005950927734 C -837.5000610351563 -118.6031875610352 -814.3970947265625 -95.50019073486328 -785.9996948242188 -95.50019073486328 C -757.6028442382813 -95.50019073486328 -734.5003051757813 -118.6031875610352 -734.5003051757813 -147.0005950927734 C -734.5003051757813 -175.3975067138672 -757.6028442382813 -198.5000915527344 -785.9996948242188 -198.5000915527344 Z" stroke="none"/>
    <path d="M -772.918701171875 -30.00001335144043 L -771.8992919921875 -30.32021331787109 C -770.5097045898438 -30.7567138671875 -769.2611083984375 -31.64508056640625 -768.3836059570313 -32.82164764404297 C -767.478515625 -34.03538131713867 -767.0000610351563 -35.48018264770508 -767.0000610351563 -36.99991226196289 L -767.0001220703125 -61.56991577148438 L -767.0001220703125 -63.92678070068359 L -764.710205078125 -64.48464965820313 C -756.19482421875 -66.55924987792969 -748.05517578125 -69.90618133544922 -740.5172729492188 -74.43244934082031 L -738.5084228515625 -75.63871765136719 L -736.8515625 -73.98184967041016 L -719.531982421875 -56.66221237182617 C -718.2098999023438 -55.34014892578125 -716.4521484375 -54.6120491027832 -714.5824584960938 -54.6120491027832 C -712.7127075195313 -54.6120491027832 -710.9549560546875 -55.34014892578125 -709.6328735351563 -56.66228103637695 L -692.6616821289063 -73.63261413574219 C -691.339599609375 -74.95465087890625 -690.6115112304688 -76.71244812011719 -690.6115112304688 -78.58214569091797 C -690.6115112304688 -80.45188140869141 -691.339599609375 -82.20964813232422 -692.6617431640625 -83.53174591064453 L -709.9812622070313 -100.8522491455078 L -711.63818359375 -102.5092163085938 L -710.4317626953125 -104.5180130004883 C -705.9056396484375 -112.0548782348633 -702.5587158203125 -120.1942138671875 -700.4840698242188 -128.7099151611328 L -699.9262084960938 -130.9998168945313 L -697.5693359375 -130.9998168945313 L -673.000244140625 -130.9998168945313 C -669.1404418945313 -130.9998168945313 -666.0003051757813 -134.1399536132813 -666.0003051757813 -137.9997100830078 L -666.0003051757813 -162.0000152587891 C -666.0003051757813 -165.8597869873047 -669.1404418945313 -168.9999084472656 -673.000244140625 -168.9999084472656 L -697.818603515625 -168.9999084472656 L -700.1475830078125 -168.9999084472656 L -700.7249755859375 -171.2561798095703 C -702.8739624023438 -179.6543426513672 -706.2625122070313 -187.6714477539063 -710.7963256835938 -195.0848083496094 L -712.0291137695313 -197.1005401611328 L -710.3583374023438 -198.7713165283203 L -692.66162109375 -216.4680786132813 C -689.9324340820313 -219.1971435546875 -689.9325561523438 -223.6383209228516 -692.66162109375 -226.367919921875 L -709.6329345703125 -243.3384094238281 C -710.9548950195313 -244.6604461669922 -712.7127075195313 -245.3885192871094 -714.5824584960938 -245.3885192871094 C -716.4522094726563 -245.3885192871094 -718.2099609375 -244.6604156494141 -719.5320434570313 -243.3383178710938 L -737.4789428710938 -225.3923187255859 L -739.1221923828125 -223.7491149902344 L -741.1240234375 -224.9294738769531 C -748.489013671875 -229.2723846435547 -756.424560546875 -232.4980773925781 -764.7102661132813 -234.5169830322266 L -767.0000610351563 -235.0749206542969 L -767.0000610351563 -237.4317169189453 L -767.0000610351563 -262.9998168945313 C -767.0000610351563 -264.5202941894531 -767.478515625 -265.9654541015625 -768.3836059570313 -267.1790466308594 C -769.2610473632813 -268.3554992675781 -770.5095825195313 -269.2438354492188 -771.8992919921875 -269.6803894042969 L -772.915771484375 -269.9996948242188 L -799.08447265625 -269.9996948242188 L -800.1009521484375 -269.6803894042969 C -801.4907836914063 -269.2438049316406 -802.7393798828125 -268.3554992675781 -803.61669921875 -267.1790771484375 C -804.5218505859375 -265.9654235839844 -805.0003051757813 -264.5202331542969 -805.0003051757813 -262.9998168945313 L -805.000244140625 -237.1815185546875 L -805.000244140625 -234.8523406982422 L -807.2567749023438 -234.2751159667969 C -815.4200439453125 -232.1868438720703 -823.2344970703125 -228.9210205078125 -830.4830932617188 -224.5682830810547 L -832.491943359375 -223.3620147705078 L -834.1488647460938 -225.0188751220703 L -852.4683227539063 -243.33837890625 C -853.7903442382813 -244.6604156494141 -855.548095703125 -245.3885192871094 -857.4178466796875 -245.3885192871094 C -859.28759765625 -245.3885192871094 -861.0453491210938 -244.6604461669922 -862.3673706054688 -243.3383483886719 L -879.3377685546875 -226.3679504394531 C -880.6602783203125 -225.0454406738281 -881.3886108398438 -223.2873840332031 -881.3886108398438 -221.4176483154297 C -881.3886108398438 -219.5480499267578 -880.6603393554688 -217.7903137207031 -879.3377685546875 -216.468017578125 L -861.018310546875 -198.1484832763672 L -859.3614501953125 -196.4916076660156 L -860.5677490234375 -194.4827880859375 C -864.91943359375 -187.2356872558594 -868.185302734375 -179.4211120605469 -870.2745361328125 -171.2562103271484 L -870.8518676757813 -168.9999084472656 L -873.180908203125 -168.9999084472656 L -899.0001220703125 -168.9999084472656 C -902.85986328125 -168.9999084472656 -906 -165.8597869873047 -906 -162.0000152587891 L -906 -137.9997100830078 C -906 -134.1399536132813 -902.85986328125 -130.9998168945313 -899.0001220703125 -130.9998168945313 L -873.4302368164063 -130.9998168945313 L -871.0731811523438 -130.9998168945313 L -870.5154418945313 -128.7097473144531 C -868.497314453125 -120.4238815307617 -865.271728515625 -112.4884796142578 -860.9281616210938 -105.1239776611328 L -859.7474365234375 -103.1220474243164 L -861.390869140625 -101.4785842895508 L -879.3380126953125 -83.53144836425781 C -880.6603393554688 -82.20941162109375 -881.3886108398438 -80.45171356201172 -881.3886108398438 -78.58214569091797 C -881.3886108398438 -76.71261596679688 -880.6603393554688 -74.95491027832031 -879.3377685546875 -73.63261413574219 L -862.3670654296875 -56.66194915771484 C -861.045166015625 -55.33964920043945 -859.2874755859375 -54.61141586303711 -857.4178466796875 -54.61141586303711 C -855.5482788085938 -54.61141586303711 -853.79052734375 -55.33964920043945 -852.4683837890625 -56.66218185424805 L -834.7716674804688 -74.35977935791016 L -833.100830078125 -76.03071594238281 L -831.0850219726563 -74.79778289794922 C -823.6705322265625 -70.26287841796875 -815.653564453125 -66.87441253662109 -807.2568359375 -64.72647857666016 L -805.0003051757813 -64.14928436279297 L -805.0003051757813 -61.8200798034668 L -805.0003051757813 -36.99991226196289 C -805.0003051757813 -35.48018264770508 -804.5218505859375 -34.03538131713867 -803.61669921875 -32.82168197631836 C -802.7391967773438 -31.64508056640625 -801.4906005859375 -30.7567138671875 -800.1010131835938 -30.32021331787109 L -799.0816040039063 -30.00001335144043 L -798.0003051757813 -30.00001335144043 L -774 -30.00001335144043 L -772.918701171875 -30.00001335144043 M -785.9996948242188 -200.0001068115234 C -756.7756958007813 -200.0001068115234 -733.0003051757813 -176.224609375 -733.0003051757813 -147.0005798339844 C -733.0003051757813 -117.7760467529297 -756.7756958007813 -94.00018310546875 -785.9996948242188 -94.00018310546875 C -815.2241821289063 -94.00018310546875 -839.0000610351563 -117.7760467529297 -839.0000610351563 -147.0005798339844 C -839.0000610351563 -176.224609375 -815.2241821289063 -200.0001068115234 -785.9996948242188 -200.0001068115234 M -771.0003051757813 -27.00001335144043 L -771.0012817382813 -27.00001335144043 L -774 -27.00001335144043 L -798.0003051757813 -27.00001335144043 L -801 -27.00001335144043 L -801 -27.45808029174805 C -802.9866943359375 -28.08211326599121 -804.770263671875 -29.3503475189209 -806.0215454101563 -31.0281810760498 C -807.3160400390625 -32.76394653320313 -808.0003051757813 -34.82891464233398 -808.0003051757813 -36.99991226196289 L -808.0003051757813 -61.8200798034668 C -816.6873779296875 -64.04228210449219 -824.9811401367188 -67.54784393310547 -832.6503295898438 -72.23851776123047 L -850.3469848632813 -54.54091262817383 C -852.2356567382813 -52.65177917480469 -854.746826171875 -51.61141586303711 -857.4178466796875 -51.61141586303711 C -860.0889282226563 -51.61141586303711 -862.60009765625 -52.65177917480469 -864.4887084960938 -54.54091262817383 L -881.4591064453125 -71.51128387451172 C -883.3482055664063 -73.39997863769531 -884.3886108398438 -75.91111755371094 -884.3886108398438 -78.58214569091797 C -884.3886108398438 -81.25321197509766 -883.3482055664063 -83.76435089111328 -881.4591064453125 -85.65301513671875 L -863.51220703125 -103.5999145507813 C -868.0057373046875 -111.2187118530273 -871.3425903320313 -119.4284439086914 -873.4302368164063 -127.9998168945313 L -899.0001220703125 -127.9998168945313 C -904.5140991210938 -127.9998168945313 -909 -132.4857482910156 -909 -137.9997100830078 L -909 -162.0000152587891 C -909 -167.5139770507813 -904.5140991210938 -171.9999084472656 -899.0001220703125 -171.9999084472656 L -873.180908203125 -171.9999084472656 C -871.0193481445313 -180.4473114013672 -867.640625 -188.5315093994141 -863.1396484375 -196.0271759033203 L -881.4591064453125 -214.3467102050781 C -883.3482055664063 -216.2353820800781 -884.3886108398438 -218.7465515136719 -884.3886108398438 -221.4176483154297 C -884.3886108398438 -224.0887756347656 -883.3482055664063 -226.6001739501953 -881.4591064453125 -228.4892883300781 L -864.4887084960938 -245.4596862792969 C -862.60009765625 -247.3483734130859 -860.0889892578125 -248.3885192871094 -857.4178466796875 -248.3885192871094 C -854.746826171875 -248.3885192871094 -852.2356567382813 -247.3483734130859 -850.3469848632813 -245.4596862792969 L -832.0275268554688 -227.1402130126953 C -824.5289306640625 -231.6430511474609 -816.4445190429688 -235.0213775634766 -808.000244140625 -237.1815185546875 L -808.0003051757813 -262.9998168945313 C -808.0003051757813 -265.1715393066406 -807.3160400390625 -267.2368774414063 -806.0215454101563 -268.9726257324219 C -804.7701416015625 -270.6506042480469 -802.98681640625 -271.9184265136719 -801 -272.5425109863281 L -801 -272.9996948242188 L -771.0003051757813 -272.9996948242188 L -771.0003051757813 -272.5425109863281 C -769.0135498046875 -271.91845703125 -767.22998046875 -270.6502685546875 -765.978759765625 -268.9726257324219 C -764.684326171875 -267.2369384765625 -764.0000610351563 -265.1715698242188 -764.0000610351563 -262.9998168945313 L -764.0000610351563 -237.4317169189453 C -755.4276733398438 -235.3429412841797 -747.2180786132813 -232.0056762695313 -739.6002197265625 -227.5136871337891 L -721.6533203125 -245.4596862792969 C -719.7646484375 -247.3483734130859 -717.2534790039063 -248.3885192871094 -714.5824584960938 -248.3885192871094 C -711.911376953125 -248.3885192871094 -709.4002075195313 -247.3483734130859 -707.5115966796875 -245.4596862792969 L -690.5403442382813 -228.4892883300781 C -686.6415405273438 -224.5897216796875 -686.6415405273438 -218.2453765869141 -690.5403442382813 -214.3467102050781 L -708.2369995117188 -196.6500091552734 C -703.546875 -188.9810485839844 -700.0416259765625 -180.6871490478516 -697.818603515625 -171.9999084472656 L -673.000244140625 -171.9999084472656 C -667.4862670898438 -171.9999084472656 -663.0003051757813 -167.5139770507813 -663.0003051757813 -162.0000152587891 L -663.0003051757813 -137.9997100830078 C -663.0003051757813 -132.4857482910156 -667.4862670898438 -127.9998168945313 -673.000244140625 -127.9998168945313 L -697.5693359375 -127.9998168945313 C -699.7157592773438 -119.1894836425781 -703.1783447265625 -110.7691497802734 -707.8599243164063 -102.9735107421875 L -690.5403442382813 -85.65301513671875 C -688.6516723632813 -83.76435089111328 -687.6115112304688 -81.25321197509766 -687.6115112304688 -78.58214569091797 C -687.6115112304688 -75.91111755371094 -688.6516723632813 -73.39997863769531 -690.5403442382813 -71.51128387451172 L -707.5115966796875 -54.54091262817383 C -709.4002075195313 -52.65221405029297 -711.911376953125 -51.6120491027832 -714.5824584960938 -51.6120491027832 C -717.2534790039063 -51.6120491027832 -719.7646484375 -52.65221405029297 -721.6533203125 -54.54091262817383 L -738.972900390625 -71.86051177978516 C -746.7706909179688 -67.17814636230469 -755.1914672851563 -63.71594619750977 -764.0001220703125 -61.56991577148438 L -764.0000610351563 -36.99991226196289 C -764.0000610351563 -34.82888031005859 -764.684326171875 -32.76388168334961 -765.978759765625 -31.0281810760498 C -767.2303466796875 -29.3499813079834 -769.0137329101563 -28.08208084106445 -771.0003051757813 -27.45808029174805 L -771.0003051757813 -27.00101470947266 L -771.0003051757813 -27.00001335144043 Z M -785.9996948242188 -197.0001068115234 C -813.5700073242188 -197.0001068115234 -836.0000610351563 -174.5704193115234 -836.0000610351563 -147.0005798339844 C -836.0000610351563 -119.4302825927734 -813.5700073242188 -97.00018310546875 -785.9996948242188 -97.00018310546875 C -758.429931640625 -97.00018310546875 -736.0003051757813 -119.4302825927734 -736.0003051757813 -147.0005798339844 C -736.0003051757813 -174.5704193115234 -758.429931640625 -197.0001068115234 -785.9996948242188 -197.0001068115234 Z" stroke="none" fill="#707070"/>
  </g>
</svg>
