<?xml version="1.0" standalone="yes"?>
<svg xmlns="http://www.w3.org/2000/svg" width="459" height="459">
<path style="fill:#f3f1f1; stroke:none;" d="M0 0L0 459L459 459L459 0L0 0z"/>
<path style="fill:#e8cd9d; stroke:none;" d="M56 130C58.0521 130.874 59.7472 130.953 62 131C59.9479 130.126 58.2528 130.047 56 130z"/>
<path style="fill:#f0d402; stroke:none;" d="M33 133L33 178C38.6472 172.591 42.8711 166.405 50 162.553C70.1032 151.692 91.4654 162.51 102 181C103.981 176.28 103 170.08 103 165L103 132C94.6446 131.931 86.3374 130.404 78 130.039C63.3328 129.397 47.4255 130.312 33 133z"/>
<path style="fill:#e8cd9d; stroke:none;" d="M82 130C83.7691 130.779 85.0359 130.912 87 131C85.231 130.221 83.9641 130.088 82 130M95 131C96.2483 131.685 96.5484 131.749 98 132C96.7516 131.315 96.4516 131.251 95 131z"/>
<path style="fill:#cb7056; stroke:none;" d="M103 132L104 133L103 132z"/>
<path style="fill:#fe5628; stroke:none;" d="M103 133L102 221L185 222C185 198.474 183.609 174.467 185 151C174.497 146.116 162.249 143.429 151 140.765C135.231 137.032 119.313 133.045 103 133z"/>
<path style="fill:#e8cd9d; stroke:none;" d="M111 133C113.332 133.985 115.457 133.981 118 134C115.668 133.015 113.543 133.019 111 133M121 134C122.248 134.685 122.548 134.749 124 135C122.752 134.315 122.452 134.251 121 134z"/>
<path style="fill:#cb7056; stroke:none;" d="M127 135L128 136L127 135z"/>
<path style="fill:#e8cd9d; stroke:none;" d="M128 135C129.248 135.685 129.548 135.749 131 136C129.752 135.315 129.452 135.251 128 135M132.667 136.333C132.222 136.778 133.278 136.722 133.333 136.667C133.778 136.222 132.722 136.278 132.667 136.333M137 137C138.506 137.683 139.315 137.826 141 138C139.494 137.317 138.685 137.174 137 137z"/>
<path style="fill:#cb7056; stroke:none;" d="M142 138L143 139L142 138z"/>
<path style="fill:#e8cd9d; stroke:none;" d="M143.667 138.333C143.222 138.778 144.278 138.722 144.333 138.667C144.778 138.222 143.722 138.278 143.667 138.333M146.667 139.333C146.222 139.778 147.278 139.722 147.333 139.667C147.778 139.222 146.722 139.278 146.667 139.333M149.667 140.333C149.222 140.778 150.278 140.722 150.333 140.667C150.778 140.222 149.722 140.278 149.667 140.333M154.667 141.333C154.222 141.778 155.278 141.722 155.333 141.667C155.778 141.222 154.722 141.278 154.667 141.333M161.667 143.333C161.222 143.778 162.278 143.722 162.333 143.667C162.778 143.222 161.722 143.278 161.667 143.333M164.667 144.333C164.222 144.778 165.278 144.722 165.333 144.667C165.778 144.222 164.722 144.278 164.667 144.333M168.667 145.333C168.222 145.778 169.278 145.722 169.333 145.667C169.778 145.222 168.722 145.278 168.667 145.333M174 147C175.248 147.685 175.548 147.749 177 148C175.752 147.315 175.452 147.251 174 147M181 149C182.248 149.685 182.548 149.749 184 150C182.752 149.315 182.452 149.251 181 149z"/>
<path style="fill:#cb7056; stroke:none;" d="M184 150L185 151L184 150z"/>
<path style="fill:#16b79a; stroke:none;" d="M185 151L186 222L320 222C310.629 214.154 298.309 208.944 288 202.308C256.172 181.818 221.606 161.614 185 151z"/>
<path style="fill:#6aa36f; stroke:none;" d="M186 151L187 152L186 151z"/>
<path style="fill:#cb7056; stroke:none;" d="M184.333 153.667C184.278 153.722 184.222 154.778 184.667 154.333C184.722 154.278 184.778 153.222 184.333 153.667z"/>
<path style="fill:#6aa36f; stroke:none;" d="M194 154L195 155L194 154M197 155L198 156L197 155z"/>
<path style="fill:#e8cd9d; stroke:none;" d="M62 158C65.6975 159.552 70.0168 159 74 159C70.3025 157.448 65.9832 158 62 158z"/>
<path style="fill:#6aa36f; stroke:none;" d="M204 158L205 159L204 158z"/>
<path style="fill:#e8cd9d; stroke:none;" d="M82 161L83 162L82 161M49 162L50 163L49 162M86 163L87 164L86 163z"/>
<path style="fill:#6aa36f; stroke:none;" d="M219 164L220 165L219 164z"/>
<path style="fill:#e8cd9d; stroke:none;" d="M89 165L90 166L89 165M42 167L43 168L42 167z"/>
<path style="fill:#6aa36f; stroke:none;" d="M227 168L228 169L227 168z"/>
<path style="fill:#e8cd9d; stroke:none;" d="M58 172C60.3316 172.985 62.4566 172.981 65 173C62.6684 172.015 60.5434 172.019 58 172z"/>
<path style="fill:#6aa36f; stroke:none;" d="M236 172L237 173L236 172z"/>
<path style="fill:#e8cd9d; stroke:none;" d="M36 173L37 174L36 173z"/>
<path style="fill:#6aa36f; stroke:none;" d="M55.6667 173.333C55.2222 173.778 56.2778 173.722 56.3333 173.667C56.7778 173.222 55.7222 173.278 55.6667 173.333z"/>
<path style="fill:#2f2d2d; stroke:none;" d="M57 173.533C32.0716 179.573 41.2141 218.928 66 213.61C91.9711 208.037 82.561 167.34 57 173.533z"/>
<path style="fill:#6aa36f; stroke:none;" d="M66 173C67.2483 173.685 67.5484 173.749 69 174C67.7516 173.315 67.4516 173.251 66 173z"/>
<path style="fill:#e8cd9d; stroke:none;" d="M52 174L53 175L52 174z"/>
<path style="fill:#6aa36f; stroke:none;" d="M53 174L54 175L53 174M70 174L71 175L70 174z"/>
<path style="fill:#e8cd9d; stroke:none;" d="M51 175L52 176L51 175M72 175L73 176L72 175z"/>
<path style="fill:#6aa36f; stroke:none;" d="M185 175L185 222L175 222C178.959 223.661 183.74 223 188 223L213 223L300 223C296.301 221.448 291.983 222 288 222L265 222L186 222L186 191C186 185.92 186.981 179.72 185 175z"/>
<path style="fill:#e8cd9d; stroke:none;" d="M242 175L243 176L242 175M50 176L51 177L50 176z"/>
<path style="fill:#6aa36f; stroke:none;" d="M73 176L74 177L73 176z"/>
<path style="fill:#cb7056; stroke:none;" d="M411 176L411 271C413.599 264.806 412 255.686 412 249L412 201C412 193.52 413.903 182.919 411 176z"/>
<path style="fill:#6aa36f; stroke:none;" d="M49 177L50 178L49 177M74 177L75 178L74 177z"/>
<path style="fill:#e8cd9d; stroke:none;" d="M409 177L410 178L409 177z"/>
<path style="fill:#fe5628; stroke:none;" d="M410 177C382.706 192.931 354.24 206.951 327 223C331.008 226.753 336.272 229.212 341 231.989C351.539 238.179 362.445 243.703 373 249.86C384.534 256.589 397.919 267.007 411 270L411 206C411 197.466 413.306 184.879 410 177z"/>
<path style="fill:#e8cd9d; stroke:none;" d="M33 178L34 179L33 178z"/>
<path style="fill:#6aa36f; stroke:none;" d="M48 178L49 179L48 178M75 178L76 179L75 178z"/>
<path style="fill:#e8cd9d; stroke:none;" d="M407 178L408 179L407 178M46 179L47 180L46 179z"/>
<path style="fill:#6aa36f; stroke:none;" d="M76 179L77 180L76 179M249 179L250 180L249 179z"/>
<path style="fill:#e8cd9d; stroke:none;" d="M405 179L406 180L405 179z"/>
<path style="fill:#6aa36f; stroke:none;" d="M77 180L78 181L77 180z"/>
<path style="fill:#e8cd9d; stroke:none;" d="M403 180L404 181L403 180z"/>
<path style="fill:#6aa36f; stroke:none;" d="M45 181L46 182L45 181z"/>
<path style="fill:#e8cd9d; stroke:none;" d="M78 181L79 182L78 181M401 181L402 182L401 181M44 182L45 183L44 182M399 182L400 183L399 182z"/>
<path style="fill:#6aa36f; stroke:none;" d="M79 183L80 184L79 183M256 183L257 184L256 183M43 184L44 185L43 184M258 184L259 185L258 184M80 185L81 186L80 185M260 185L261 186L260 185z"/>
<path style="fill:#e8cd9d; stroke:none;" d="M394 185L395 186L394 185z"/>
<path style="fill:#6aa36f; stroke:none;" d="M42 186L43 187L42 186z"/>
<path style="fill:#e8cd9d; stroke:none;" d="M81 186L81 190C81.7102 188.241 81.7102 187.759 81 186M262 186L263 187L262 186M392 186L393 187L392 186z"/>
<path style="fill:#6aa36f; stroke:none;" d="M265 188L266 189L265 188z"/>
<path style="fill:#e8cd9d; stroke:none;" d="M387 189L388 190L387 189M41 191L41 198C42.0595 195.466 42.0595 193.534 41 191z"/>
<path style="fill:#6aa36f; stroke:none;" d="M270 191L271 192L270 191z"/>
<path style="fill:#e8cd9d; stroke:none;" d="M384 191L385 192L384 191M382 192L383 193L382 192z"/>
<path style="fill:#6aa36f; stroke:none;" d="M273 193L274 194L273 193z"/>
<path style="fill:#cb7056; stroke:none;" d="M380 193L381 194L380 193z"/>
<path style="fill:#6aa36f; stroke:none;" d="M275 194L276 195L275 194z"/>
<path style="fill:#e8cd9d; stroke:none;" d="M378 194L379 195L378 194M375 196L376 197L375 196M373 197L374 198L373 197M81.3333 198.667C81.2777 198.722 81.2223 199.778 81.6667 199.333C81.7222 199.278 81.7778 198.222 81.3333 198.667M371 198L372 199L371 198M283 199L284 200L283 199M369 199L370 200L369 199z"/>
<path style="fill:#6aa36f; stroke:none;" d="M42 200L43 201L42 200z"/>
<path style="fill:#cb7056; stroke:none;" d="M368 200L369 201L368 200z"/>
<path style="fill:#6aa36f; stroke:none;" d="M286 201L287 202L286 201M43 202L44 203L43 202M79 203L80 204L79 203M289 203L290 204L289 203z"/>
<path style="fill:#cb7056; stroke:none;" d="M362 203L363 204L362 203z"/>
<path style="fill:#6aa36f; stroke:none;" d="M44 204L45 205L44 204M45 205L46 206L45 205M78 205L79 206L78 205z"/>
<path style="fill:#f0d402; stroke:none;" d="M101 205C92.7888 221.085 72.3127 231.335 55 223.941C45.4695 219.87 40.6839 212.2 33 206L33 313C55.6687 317.208 79.1872 314.015 102 314L102 238L102 217C102 213.017 102.552 208.699 101 205z"/>
<path style="fill:#e8cd9d; stroke:none;" d="M100 206L101 207L100 206M357 206L358 207L357 206z"/>
<path style="fill:#6aa36f; stroke:none;" d="M47 207L48 208L47 207z"/>
<path style="fill:#e8cd9d; stroke:none;" d="M355 207L356 208L355 207z"/>
<path style="fill:#6aa36f; stroke:none;" d="M48 208L49 209L48 208z"/>
<path style="fill:#e8cd9d; stroke:none;" d="M99 208L100 209L99 208M353 208L354 209L353 208M36 209L37 210L36 209z"/>
<path style="fill:#6aa36f; stroke:none;" d="M49 209L50 210L49 209M75 209L76 210L75 209z"/>
<path style="fill:#e8cd9d; stroke:none;" d="M98 209L99 210L98 209z"/>
<path style="fill:#6aa36f; stroke:none;" d="M50.6667 210.333C50.2222 210.778 51.2778 210.722 51.3333 210.667C51.7779 210.222 50.7222 210.278 50.6667 210.333M73 210L74 211L73 210M71 211L72 212L71 211M302 211L303 212L302 211z"/>
<path style="fill:#e8cd9d; stroke:none;" d="M348 211L349 212L348 211z"/>
<path style="fill:#6aa36f; stroke:none;" d="M54.6667 212.333C54.2223 212.778 55.2778 212.722 55.3333 212.667C55.7778 212.222 54.7222 212.278 54.6667 212.333M69.6667 212.333C69.2222 212.778 70.2778 212.722 70.3333 212.667C70.7777 212.222 69.7222 212.278 69.6667 212.333M57 213L58 214L57 213M67.6667 213.333C67.2222 213.778 68.2778 213.722 68.3333 213.667C68.7778 213.222 67.7222 213.278 67.6667 213.333z"/>
<path style="fill:#e8cd9d; stroke:none;" d="M95 213L96 214L95 213M344 213L345 214L344 213M58 214C60.8897 215.213 63.8741 214.998 67 215C64.1103 213.787 61.1259 214.002 58 214M94 214L95 215L94 214z"/>
<path style="fill:#6aa36f; stroke:none;" d="M307 214L308 215L307 214z"/>
<path style="fill:#e8cd9d; stroke:none;" d="M41 215L42 216L41 215M93 215L94 216L93 215z"/>
<path style="fill:#6aa36f; stroke:none;" d="M309 215L310 216L309 215z"/>
<path style="fill:#e8cd9d; stroke:none;" d="M42 216L43 217L42 216M92 216L93 217L92 216z"/>
<path style="fill:#cb7056; stroke:none;" d="M337 217L338 218L337 217z"/>
<path style="fill:#e8cd9d; stroke:none;" d="M45 218L46 219L45 218M89 218L90 219L89 218z"/>
<path style="fill:#6aa36f; stroke:none;" d="M314 218L315 219L314 218z"/>
<path style="fill:#e8cd9d; stroke:none;" d="M46 219L47 220L46 219M88 219L89 220L88 219z"/>
<path style="fill:#6aa36f; stroke:none;" d="M316 219L317 220L316 219z"/>
<path style="fill:#e8cd9d; stroke:none;" d="M333 219L334 220L333 219M86 220L87 221L86 220M331 220L332 221L331 220M50 221L51 222L50 221z"/>
<path style="fill:#cb7056; stroke:none;" d="M102 221C108.436 223.701 118.049 222 125 222L175 222C168.564 219.299 158.951 221 152 221L102 221z"/>
<path style="fill:#e8cd9d; stroke:none;" d="M320.333 221.667C320.278 221.722 320.222 222.778 320.667 222.333C320.722 222.278 320.778 221.222 320.333 221.667M329 221L330 222L329 221M83 222L84 223L83 222z"/>
<path style="fill:#6aa36f; stroke:none;" d="M102 222L102 314C104.497 308.049 103 299.42 103 293L103 246C103 238.784 104.802 228.678 102 222z"/>
<path style="fill:#16b79a; stroke:none;" d="M103 222L103 314C131.272 310.408 157.6 302.325 185 295L185 223L103 222z"/>
<path style="fill:#cb7056; stroke:none;" d="M300 222C305.715 224.398 313.831 223 320 223C314.285 220.602 306.169 222 300 222z"/>
<path style="fill:#e8cd9d; stroke:none;" d="M327 222L328 223L327 222M53.6667 223.333C53.2223 223.778 54.2778 223.722 54.3333 223.667C54.7778 223.222 53.7222 223.278 53.6667 223.333M80.6667 223.333C80.2222 223.778 81.2778 223.722 81.3333 223.667C81.7778 223.222 80.7222 223.278 80.6667 223.333z"/>
<path style="fill:#cb7056; stroke:none;" d="M185 223L185 294C187.085 289.031 186 282.35 186 277L186 242C186 236.113 187.292 228.462 185 223z"/>
<path style="fill:#fe5628; stroke:none;" d="M186 223L186 294C213.47 284.707 240.222 270.496 265 255.55C282.395 245.057 299.585 232.608 318 224C313.785 222.231 308.536 223 304 223L278 223L186 223z"/>
<path style="fill:#e8cd9d; stroke:none;" d="M326 223L327 224L326 223M55 224C56.506 224.683 57.3148 224.826 59 225C57.4939 224.317 56.6852 224.174 55 224M76 224C77.2484 224.685 77.5483 224.749 79 225C77.7517 224.315 77.4515 224.251 76 224z"/>
<path style="fill:#cb7056; stroke:none;" d="M328 224L329 225L328 224z"/>
<path style="fill:#e8cd9d; stroke:none;" d="M73 225C74.2484 225.685 74.5484 225.749 76 226C74.7517 225.315 74.4515 225.251 73 225z"/>
<path style="fill:#cb7056; stroke:none;" d="M314 225L315 226L314 225z"/>
<path style="fill:#e8cd9d; stroke:none;" d="M329 225L330 226L329 225M64 226C66.0521 226.874 67.7472 226.953 70 227C67.9479 226.126 66.2528 226.047 64 226M313 226L314 227L313 226M331 226L332 227L331 226M311 227L312 228L311 227M333 227L334 228L333 227M309 228L310 229L309 228M335 228L336 229L335 228M338 230L339 231L338 230z"/>
<path style="fill:#cb7056; stroke:none;" d="M304 231L305 232L304 231z"/>
<path style="fill:#e8cd9d; stroke:none;" d="M340 231L341 232L340 231M343 233L344 234L343 233M347 235L348 236L347 235z"/>
<path style="fill:#cb7056; stroke:none;" d="M294 237L295 238L294 237M291 239L292 240L291 239z"/>
<path style="fill:#e8cd9d; stroke:none;" d="M354 239L355 240L354 239z"/>
<path style="fill:#cb7056; stroke:none;" d="M289 240L290 241L289 240z"/>
<path style="fill:#e8cd9d; stroke:none;" d="M358 241L359 242L358 241M359 242L360 243L359 242z"/>
<path style="fill:#cb7056; stroke:none;" d="M284 243L285 244L284 243z"/>
<path style="fill:#e8cd9d; stroke:none;" d="M361 243L362 244L361 243z"/>
<path style="fill:#cb7056; stroke:none;" d="M282 244L283 245L282 244z"/>
<path style="fill:#e8cd9d; stroke:none;" d="M363 244L364 245L363 244M365 245L366 246L365 245M367 246L368 247L367 246z"/>
<path style="fill:#cb7056; stroke:none;" d="M277 247L278 248L277 247z"/>
<path style="fill:#e8cd9d; stroke:none;" d="M370 248L371 249L370 248z"/>
<path style="fill:#cb7056; stroke:none;" d="M274 249L275 250L274 249z"/>
<path style="fill:#e8cd9d; stroke:none;" d="M372 249L373 250L372 249z"/>
<path style="fill:#cb7056; stroke:none;" d="M272 250L273 251L272 250z"/>
<path style="fill:#e8cd9d; stroke:none;" d="M374 250L375 251L374 250z"/>
<path style="fill:#cb7056; stroke:none;" d="M269 252L270 253L269 252z"/>
<path style="fill:#e8cd9d; stroke:none;" d="M377 252L378 253L377 252z"/>
<path style="fill:#cb7056; stroke:none;" d="M381 254L382 255L381 254z"/>
<path style="fill:#e8cd9d; stroke:none;" d="M382 255L383 256L382 255z"/>
<path style="fill:#cb7056; stroke:none;" d="M263 256L264 257L263 256z"/>
<path style="fill:#e8cd9d; stroke:none;" d="M384 256L385 257L384 256M386 257L387 258L386 257z"/>
<path style="fill:#cb7056; stroke:none;" d="M259 258L260 259L259 258z"/>
<path style="fill:#e8cd9d; stroke:none;" d="M258 259L259 260L258 259M389 259L390 260L389 259z"/>
<path style="fill:#cb7056; stroke:none;" d="M256 260L257 261L256 260z"/>
<path style="fill:#e8cd9d; stroke:none;" d="M391 260L392 261L391 260M393 261L394 262L393 261M395 262L396 263L395 262z"/>
<path style="fill:#cb7056; stroke:none;" d="M399 264L400 265L399 264z"/>
<path style="fill:#e8cd9d; stroke:none;" d="M247 265L248 266L247 265M402 266L403 267L402 266M243.667 267.333C243.222 267.778 244.278 267.722 244.333 267.667C244.778 267.222 243.722 267.278 243.667 267.333M406 268L407 269L406 268M410 270L411 271L410 270M235.667 271.333C235.222 271.778 236.278 271.722 236.333 271.667C236.778 271.222 235.722 271.278 235.667 271.333z"/>
<path style="fill:#cb7056; stroke:none;" d="M231 273L232 274L231 273z"/>
<path style="fill:#e8cd9d; stroke:none;" d="M227.667 275.333C227.222 275.778 228.278 275.722 228.333 275.667C228.778 275.222 227.722 275.278 227.667 275.333z"/>
<path style="fill:#cb7056; stroke:none;" d="M217 280L218 281L217 280z"/>
<path style="fill:#e8cd9d; stroke:none;" d="M215.667 281.333C215.222 281.778 216.278 281.722 216.333 281.667C216.778 281.222 215.722 281.278 215.667 281.333M202.667 287.333C202.222 287.778 203.278 287.722 203.333 287.667C203.778 287.222 202.722 287.278 202.667 287.333z"/>
<path style="fill:#cb7056; stroke:none;" d="M197 289L198 290L197 289z"/>
<path style="fill:#6aa36f; stroke:none;" d="M182 295L183 296L182 295M167 300L168 301L167 300z"/>
<path style="fill:#e8cd9d; stroke:none;" d="M159.667 302.333C159.222 302.778 160.278 302.722 160.333 302.667C160.778 302.222 159.722 302.278 159.667 302.333M152.667 304.333C152.222 304.778 153.278 304.722 153.333 304.667C153.778 304.222 152.722 304.278 152.667 304.333z"/>
<path style="fill:#6aa36f; stroke:none;" d="M143 306L144 307L143 306M139 307L140 308L139 307z"/>
<path style="fill:#e8cd9d; stroke:none;" d="M118 311C119.248 311.685 119.548 311.749 121 312C119.752 311.315 119.451 311.251 118 311M112 312C113.248 312.685 113.548 312.749 115 313C113.752 312.315 113.452 312.251 112 312M42 314C45.1633 315.327 48.5856 315 52 315C48.8367 313.673 45.4144 314 42 314M92 314C94.6127 315.098 97.1645 314.993 100 315C97.3873 313.902 94.8355 314.007 92 314z"/>
</svg>
