<svg xmlns="http://www.w3.org/2000/svg" width="223.725" height="324.034" viewBox="0 0 223.725 324.034">
  <g id="グループ_84" data-name="グループ 84" transform="translate(-775.606 -115.939)">
    <rect id="長方形_26" data-name="長方形 26" width="16" height="51" rx="8" transform="matrix(-0.998, -0.07, 0.07, -0.998, 895.248, 439.973)" fill="#fff1c5"/>
    <ellipse id="楕円形_24" data-name="楕円形 24" cx="32.5" cy="11.5" rx="32.5" ry="11.5" transform="translate(847 296)" fill="#919191"/>
    <rect id="長方形_25" data-name="長方形 25" width="16" height="51" rx="8" transform="matrix(0.998, -0.07, 0.07, 0.998, 859.287, 389.097)" fill="#fff1c5"/>
    <rect id="長方形_24" data-name="長方形 24" width="26" height="61" rx="8" transform="translate(908.389 338.648) rotate(-99)" fill="#d5d5d5"/>
    <path id="パス_61" data-name="パス 61" d="M43.38,5.37a4.507,4.507,0,0,1,7.5,0l37.48,53.64c2.3,3.3.1,7.99-3.752,7.99,0,0-17.492,6.333-36.232,6.333S9.651,67,9.651,67C5.8,67,3.595,62.307,5.9,59.01Z" transform="translate(832 329)" fill="#ff88df"/>
    <path id="パス_57" data-name="パス 57" d="M20.5,0C31.822,0,41-8.851,41-2.5S31.822,23,20.5,23,6.5,8.25,6.5,2.5,9.178,0,20.5,0Z" transform="translate(859 294)" fill="#fff1c5"/>
    <g id="グループ_83" data-name="グループ 83">
      <g id="グループ_31" data-name="グループ 31">
        <g id="グループ_30" data-name="グループ 30" transform="translate(0 4)">
          <g id="グループ_29" data-name="グループ 29" transform="translate(15)">
            <g id="グループ_22" data-name="グループ 22" transform="translate(760.606 111.939)">
              <path id="パス_5" data-name="パス 5" d="M24,0C37.255,0,48,11.193,48,25s1.255,24-12,24S0,38.807,0,25,10.745,0,24,0Z" transform="translate(4.394 95.061)" fill="#fff"/>
              <path id="パス_4" data-name="パス 4" d="M97.749,0C206.723,11.257,166.5,89.431,166.5,90.99c0,45.849-14.766,75.043-68.752,75.043-38.059,0-64.459-6.562-80.749-33.77C10.389,121.224,0,96.543,0,83.017,0,37.168,43.764,0,97.749,0Z" transform="translate(17.392 12.963) rotate(2)" fill="#fff1c5"/>
              <path id="パス_7" data-name="パス 7" d="M38-26C56.5-26,7,57,65,108c-2,9-37.5-25.5-46-38.5S9,45,9,45-2,64.14-2,52C-2,19.967,19.5-26,38-26Z" transform="translate(2.394 81.061)" fill="#463e3e"/>
              <path id="パス_8" data-name="パス 8" d="M33-3.667c9.941,0,7,9.333,0,43.667s-38.059,65-48,65S0,89.256,0,57.5,23.059-3.667,33-3.667Z" transform="translate(170.394 99.061)" fill="#463e3e"/>
              <path id="パス_6" data-name="パス 6" d="M89.383,0c32.586,0,66.532-.51,90.269,27,15.005,17.39,27.411,62.123,27.411,74,0,3.2-13.933-20.052-16.069-4-4.03,30.29-31.711,55.842-39.7,52-5.463-2.628,27.7-42.131,17.014-63-4.685-9.154-28.2-39.757-32.138-39-9.6,1.847-22.41,13.372-34.973,29s-11.815,34-11.815,34-22.095-8.75-31.665-20S51.1,65,51.1,65s-21.737,48.684-26.466,40c-31.192-15-9.153-50.3-10.4-50C-1.722,58.826.059,60,.059,60S5.731,12,89.383,0Z" transform="translate(18.205 0) rotate(7)" fill="#463e3e"/>
              <g id="グループ_19" data-name="グループ 19" transform="translate(53.24 121.371) rotate(14)">
                <path id="パス_10" data-name="パス 10" d="M35.984,9.347,6.517,6.9,27.144-11.638" transform="translate(36.667 5.251) rotate(180)" fill="none" stroke="#707070" stroke-linecap="round" stroke-linejoin="round" stroke-width="5"/>
              </g>
              <path id="パス_12" data-name="パス 12" d="M11.47.184c5.65-1.006,12.289-1.2,12.289,2.543S16.9,13.747,11.47,13.747,0,10.287,0,6.542,5.82,1.19,11.47.184Z" transform="matrix(-0.966, -0.259, 0.259, -0.966, 112.208, 181.717)" fill="#ffa4a4"/>
              <path id="パス_13" data-name="パス 13" d="M16.857-1.448a44.571,44.571,0,0,0-8.429-.573A76.376,76.376,0,0,0,0-1.448" transform="matrix(0.985, 0.174, -0.174, 0.985, 64.041, 94.06)" fill="none" stroke="#535353" stroke-width="3"/>
            </g>
            <path id="パス_31" data-name="パス 31" d="M15,0c8.284,0,15,12.312,15,27.5S23.284,55,15,55-15.5,20.5-10,13.5,6.716,0,15,0Z" transform="translate(807 314)" fill="#fff"/>
          </g>
        </g>
      </g>
      <path id="パス_55" data-name="パス 55" d="M34.7,14.359,51.8,9s2.7-.85,3.6,0,0,2.2,0,2.2L44.5,25.5l9.626,15.9s.581,1.575,0,2.1-2.326,0-2.326,0L34.7,39.487,22.536,56l-3.8-19.385L1.2,29.4S0,28.75,0,28s1.2-1.6,1.2-1.6l17.536-8.451V0S19.25-2.25,20.2-3a2.367,2.367,0,0,1,2.336,0Z" transform="translate(919 168)" fill="#fff567"/>
      <path id="合体_18" data-name="合体 18" d="M-856.5-202.5l34,52Zm-50-32.5A35.5,35.5,0,0,1-871-270.5,35.5,35.5,0,0,1-835.5-235,35.5,35.5,0,0,1-871-199.5,35.5,35.5,0,0,1-906.5-235Z" transform="translate(1791 477)" fill="#e8fffa" stroke="#5c9195" stroke-width="5"/>
      <ellipse id="楕円形_21" data-name="楕円形 21" cx="16.5" cy="23.5" rx="16.5" ry="23.5" transform="translate(904 222)" fill="#5a5a5a"/>
      <path id="パス_56" data-name="パス 56" d="M5.5,4s9.471-7,21.729-6S48.4,8,48.4,8" transform="translate(898.5 224.5)" fill="none" stroke="#707070" stroke-linecap="round" stroke-width="5"/>
      <ellipse id="楕円形_22" data-name="楕円形 22" cx="11" cy="9" rx="11" ry="9" transform="translate(910 251)" fill="gray"/>
      <ellipse id="楕円形_23" data-name="楕円形 23" cx="5.5" cy="2" rx="5.5" ry="2" transform="translate(927 236)" fill="#fff"/>
      <rect id="長方形_21" data-name="長方形 21" width="16" height="49" rx="8" transform="translate(940.524 297.62) rotate(-31)" fill="#8effd9"/>
    </g>
    <path id="合体_20" data-name="合体 20" d="M-904.379-212c-3.751,0-5.934-4.593-3.757-7.9l4.857-7.383a10.967,10.967,0,0,1-.83-4.2v-3.808a20.5,20.5,0,0,1-2.768-10.208,20.5,20.5,0,0,1,2.768-10.208V-262a11,11,0,0,1,11-11h38.9a11,11,0,0,1,11,11v6.292a20.494,20.494,0,0,1,2.768,10.208,20.494,20.494,0,0,1-2.768,10.208v3.808a10.981,10.981,0,0,1-.5,3.295l5.452,8.286c2.177,3.31-.005,7.9-3.757,7.9a132.718,132.718,0,0,1-30.412,4C-888.019-208-904.379-212-904.379-212Z" transform="translate(1752.698 585)" fill="#d5d5d5"/>
    <path id="パス_60" data-name="パス 60" d="M0,0,23.5,3.5,47,0V14H0Z" transform="translate(856 308)" fill="#727272"/>
    <path id="パス_58" data-name="パス 58" d="M21.987,3.268c7.537-1.962,11.5-4.632,15.255-1.6S41.346,19,38.518,19H8.482A3,3,0,0,1,6.6,13.667S14.45,5.229,21.987,3.268Z" transform="translate(879.046 335.754) rotate(-155)" fill="#919191"/>
    <path id="パス_59" data-name="パス 59" d="M25.386,1.525C32.923,3.487,40.4,13.667,40.4,13.667A3,3,0,0,1,38.518,19H8.482C5.654,19,6.027,4.717,9.781,1.682S17.849-.437,25.386,1.525Z" transform="translate(925.076 316.891) rotate(155)" fill="#919191"/>
    <ellipse id="楕円形_25" data-name="楕円形 25" cx="6.5" cy="8" rx="6.5" ry="8" transform="translate(874 317)" fill="#ff88df"/>
    <path id="多角形_12" data-name="多角形 12" d="M8.437,10.178a5,5,0,0,1,9.125,0l5.279,11.777A5,5,0,0,1,18.279,29H7.721a5,5,0,0,1-4.563-7.045Z" transform="translate(845.894 316.211) rotate(-30)" fill="#ff88df"/>
    <path id="多角形_13" data-name="多角形 13" d="M8.437,10.178a5,5,0,0,1,9.125,0l5.279,11.777A5,5,0,0,1,18.279,29H7.721a5,5,0,0,1-4.563-7.045Z" transform="translate(889.394 301.211) rotate(30)" fill="#ff88df"/>
    <path id="多角形_14" data-name="多角形 14" d="M8.749,6.868a5,5,0,0,1,8.5,0l4.024,6.5A5,5,0,0,1,17.024,21H8.976a5,5,0,0,1-4.251-7.632Z" transform="translate(881.394 317.211) rotate(30)" fill="#ff88df"/>
    <path id="多角形_15" data-name="多角形 15" d="M8.749,6.868a5,5,0,0,1,8.5,0l4.024,6.5A5,5,0,0,1,17.024,21H8.976a5,5,0,0,1-4.251-7.632Z" transform="translate(855.894 331.211) rotate(-30)" fill="#ff88df"/>
    <line id="線_20" data-name="線 20" x2="12" y2="8" transform="translate(847.5 312.5)" fill="none" stroke="#ff88df" stroke-width="1"/>
    <line id="線_21" data-name="線 21" x1="13" y2="10" transform="translate(899.5 312.5)" fill="none" stroke="#ff88df" stroke-width="1"/>
    <rect id="長方形_23" data-name="長方形 23" width="26" height="67" rx="8" transform="matrix(-0.883, -0.469, 0.469, -0.883, 838.108, 361.77)" fill="#d5d5d5"/>
    <ellipse id="楕円形_27" data-name="楕円形 27" cx="13.5" cy="10.5" rx="13.5" ry="10.5" transform="translate(827 339)" fill="#d5d5d5"/>
    <ellipse id="楕円形_28" data-name="楕円形 28" cx="10.5" cy="9.5" rx="10.5" ry="9.5" transform="translate(849 284)" fill="#fff1c5"/>
    <ellipse id="楕円形_29" data-name="楕円形 29" cx="5.5" cy="13.5" rx="5.5" ry="13.5" transform="matrix(0.875, -0.485, 0.485, 0.875, 960.145, 305.359)" fill="#fff1c5"/>
    <path id="パス_64" data-name="パス 64" d="M16,4V18a4,4,0,0,1-4,4H4a4,4,0,0,1-4-4V4C0,2.9,4.322,5.057,8.614,5.058,12.322,5.057,16,2.9,16,4Z" transform="translate(860.833 415.928) rotate(-7)" fill="#919191"/>
    <path id="パス_63" data-name="パス 63" d="M4,0h8a4,4,0,0,1,4,4V18c0,2.209-2.474-1.222-7.82-1S0,20.209,0,18V4A4,4,0,0,1,4,0Z" transform="translate(894.714 437.764) rotate(-173)" fill="#919191"/>
    <rect id="長方形_29" data-name="長方形 29" width="16" height="15" rx="6" transform="translate(861.687 424.875) rotate(-7)" fill="#b18151"/>
    <rect id="長方形_30" data-name="長方形 30" width="16" height="15" rx="6" transform="translate(894.567 439.764) rotate(-173)" fill="#b18151"/>
  </g>
</svg>
