<svg xmlns="http://www.w3.org/2000/svg" viewBox="0 0 400 300" width="406" height="306" class="illustration styles_illustrationTablet__1DWOa"><g id="_248_checklist_flatline" data-name="#248_checklist_flatline"><path d="M132.83,238.37s3.81-31.08,6-37.87,1.57-71.84,1.64-72.5-35.18,16.91-38.26,22.14,4.94,39.34,2.69,44.27-9.58,26.53-9.58,26.53Z" fill="#fff"></path><path d="M132.83,238.87a.54.54,0,0,1-.21-.05L95.1,221.39a.49.49,0,0,1-.27-.61c.3-.89,7.38-21.69,9.61-26.58,1-2.17-.24-11.15-1.44-19.83-1.45-10.59-3-21.54-1.23-24.48s11.91-8.81,20.19-13.3c2.72-1.47,17.69-9.37,18.65-9.08a.52.52,0,0,1,.35.54c0,.15,0,1.91,0,4.33.05,15.45.2,62.45-1.68,68.28-2.14,6.66-5.92,37.46-6,37.77a.53.53,0,0,1-.5.44Zm-36.9-18.2,36.49,17c.58-4.7,3.9-31,5.92-37.27,1.21-3.76,1.76-26.63,1.63-68,0-2,0-3.12,0-3.73-4.64,1.84-34.59,17.07-37.33,21.74-1.55,2.64,0,13.9,1.37,23.83,1.32,9.63,2.46,18,1.35,20.39C103.31,199.08,97,217.62,95.93,220.67Z" fill="#231f20"></path><polygon points="132.27 265.66 138.3 225.46 97.29 205.16 76.57 263.63 132.27 265.66" fill="#231f20"></polygon><path d="M132.27,266.16h0l-55.69-2a.49.49,0,0,1-.4-.21.52.52,0,0,1-.06-.45L96.82,205a.52.52,0,0,1,.7-.28l41,20.3a.49.49,0,0,1,.28.52l-6,40.2A.51.51,0,0,1,132.27,266.16Zm-55-3,54.57,2,5.91-39.4L97.58,205.86Z" fill="#231f20"></path><rect x="132.71" y="50.31" width="138.16" height="178.77" rx="6.4" fill="#fff"></rect><path d="M264.47,229.59H139.1a6.91,6.91,0,0,1-6.89-6.9v-166a6.91,6.91,0,0,1,6.89-6.9H264.47a6.91,6.91,0,0,1,6.9,6.9v166A6.91,6.91,0,0,1,264.47,229.59ZM139.1,50.81a5.9,5.9,0,0,0-5.89,5.9v166a5.9,5.9,0,0,0,5.89,5.9H264.47a5.91,5.91,0,0,0,5.9-5.9v-166a5.91,5.91,0,0,0-5.9-5.9Z" fill="#231f20"></path><rect x="141.17" y="61.27" width="121.23" height="156.87" fill="#fff"></rect><path d="M262.4,218.64H141.17a.5.5,0,0,1-.5-.5V61.27a.5.5,0,0,1,.5-.5H262.4a.5.5,0,0,1,.5.5V218.14A.5.5,0,0,1,262.4,218.64Zm-120.73-1H261.9V61.77H141.67Z" fill="#231f20"></path><path d="M233.47,44H216a14.51,14.51,0,0,0-28.49,0H170.11a4.19,4.19,0,0,0-4.19,4.18V62.75a4.19,4.19,0,0,0,4.19,4.18h63.36a4.18,4.18,0,0,0,4.18-4.18V48.17A4.18,4.18,0,0,0,233.47,44ZM201.79,45.9a3.72,3.72,0,1,1,3.71-3.72A3.73,3.73,0,0,1,201.79,45.9Z" fill="#1ac2ab"></path><path d="M187.88,111.46H158.6a.46.46,0,0,1-.46-.46V79.71a.46.46,0,0,1,.46-.46h29.28a.47.47,0,0,1,.46.46V111A.47.47,0,0,1,187.88,111.46Zm-28.82-.93h28.36V80.17H159.06Z" fill="#d1d3d4"></path><path d="M194.74,87.36a4.87,4.87,0,0,1-.53.73L175.29,107a1.06,1.06,0,0,1-1.79,0L162.86,96a1,1,0,0,1,.06-1.71l2.67-2.4a1,1,0,0,1,1.61,0q3.13,3.21,6.29,6.41a1.07,1.07,0,0,0,1.8,0L190,83.71a1.06,1.06,0,0,1,1.76,0c.83.84,1.66,1.67,2.48,2.51a7,7,0,0,1,.51.7Z" fill="#1ac2ab"></path><path d="M247.18,90.9H205.13a.47.47,0,0,1,0-.93h42.05a.47.47,0,0,1,0,.93Z" fill="#d1d3d4"></path><path d="M236,100.73H205.13a.46.46,0,0,1,0-.92H236a.46.46,0,1,1,0,.92Z" fill="#d1d3d4"></path><path d="M187.88,154.18H158.6a.45.45,0,0,1-.46-.46V122.44a.46.46,0,0,1,.46-.46h29.28a.47.47,0,0,1,.46.46v31.28A.46.46,0,0,1,187.88,154.18Zm-28.82-.92h28.36V122.9H159.06Z" fill="#d1d3d4"></path><path d="M194.74,130.09a4.87,4.87,0,0,1-.53.73l-18.92,18.89a1.06,1.06,0,0,1-1.79,0l-10.64-11a1,1,0,0,1,.06-1.71l2.67-2.4a1,1,0,0,1,1.61,0q3.13,3.21,6.29,6.41a1.07,1.07,0,0,0,1.8,0L190,126.44a1.06,1.06,0,0,1,1.76,0c.83.83,1.66,1.66,2.48,2.51a7,7,0,0,1,.51.7Z" fill="#1ac2ab"></path><path d="M247.18,133.63H205.13a.47.47,0,0,1,0-.93h42.05a.47.47,0,0,1,0,.93Z" fill="#d1d3d4"></path><path d="M236,143.46H205.13a.46.46,0,0,1,0-.92H236a.46.46,0,0,1,0,.92Z" fill="#d1d3d4"></path><path d="M187.88,196.73H158.6a.46.46,0,0,1-.46-.46V165a.46.46,0,0,1,.46-.46h29.28a.47.47,0,0,1,.46.46v31.29A.47.47,0,0,1,187.88,196.73Zm-28.82-.92h28.36V165.44H159.06Z" fill="#d1d3d4"></path><path d="M194.74,172.63a4.87,4.87,0,0,1-.53.73l-18.92,18.89c-.65.65-1.15.66-1.79,0q-5.33-5.49-10.64-11a1,1,0,0,1,.06-1.71l2.67-2.4a1,1,0,0,1,1.61,0l6.29,6.42a1.07,1.07,0,0,0,1.8,0L190,169a1.06,1.06,0,0,1,1.76,0c.83.84,1.66,1.67,2.48,2.51a7,7,0,0,1,.51.7Z" fill="#1ac2ab"></path><path d="M247.18,176.17H205.13a.47.47,0,0,1-.46-.46.46.46,0,0,1,.46-.46h42.05a.46.46,0,0,1,.46.46A.47.47,0,0,1,247.18,176.17Z" fill="#d1d3d4"></path><path d="M236,186H205.13a.46.46,0,0,1-.46-.46.47.47,0,0,1,.46-.46H236a.47.47,0,0,1,.46.46A.46.46,0,0,1,236,186Z" fill="#d1d3d4"></path><path d="M113.54,158.89c7.37-8,16.15-14.67,25.33-20.54,2.27-1.46,4.72-2.92,7.42-3s5.64,1.84,5.72,4.54c.06,2.12-1.54,3.88-3,5.38L129.38,165a26,26,0,0,1-2.79,28.5" fill="#fff"></path><path d="M126.59,194a.48.48,0,0,1-.32-.11.51.51,0,0,1-.06-.71,25.61,25.61,0,0,0,2.73-27.94.5.5,0,0,1,.09-.59l19.59-19.68c1.49-1.5,2.95-3.12,2.89-5-.07-2.45-2.82-4.11-5.21-4s-4.83,1.4-7.16,2.9c-10.67,6.82-18.69,13.32-25.23,20.46a.5.5,0,0,1-.74-.68c6.6-7.2,14.68-13.75,25.43-20.63,2.46-1.57,4.9-3,7.68-3s6.14,2,6.23,5c.07,2.28-1.53,4.09-3.18,5.74L130,165.06a26.3,26.3,0,0,1-3,28.74A.52.52,0,0,1,126.59,194Z" fill="#231f20"></path><path d="M285.13,218.07l-24.21,17.34-45.26-55.95c.07-3-2-16.17,2.47-14s21.14,21.17,23.89,21.79,9.12-2.5,8.16-8.65-2.12-16.5-8.14-16.93c-9.13-.65-17.62,5.41-21.23,4s-6.59-6.2-.7-9.74c6.74-4,21.25-6.6,32.88-5.34s20.45,24.66,21.27,41.8C277.32,203.29,283.23,213.22,285.13,218.07Z" fill="#fff"></path><path d="M260.92,235.91a.49.49,0,0,1-.39-.19l-45.25-55.94a.5.5,0,0,1-.12-.33c0-.6-.06-1.65-.15-2.86-.39-5.4-.59-10.34,1.25-11.6a2,2,0,0,1,2.08,0c2.38,1.13,7.84,6.63,13.13,11.95,4.44,4.47,9.47,9.53,10.66,9.81s3.69-.4,5.47-2.06a6.57,6.57,0,0,0,2.09-6l-.19-1.22c-.9-5.93-2.26-14.9-7.49-15.28-4.89-.35-9.67,1.29-13.5,2.61-3.39,1.16-6.06,2.08-7.88,1.39a6.6,6.6,0,0,1-4.34-5.14c-.13-1.45.38-3.59,3.56-5.5,7-4.21,21.9-6.63,33.19-5.41,12.25,1.34,20.89,25.47,21.72,42.22,2.09,7.42,5.53,14.46,8.05,19.6,1.17,2.38,2.18,4.44,2.78,6a.5.5,0,0,1-.17.58l-24.21,17.35A.5.5,0,0,1,260.92,235.91Zm-44.75-56.62L261,234.73l23.51-16.84c-.6-1.46-1.54-3.37-2.61-5.55-2.54-5.19-6-12.3-8.13-19.82a.43.43,0,0,1,0-.11c-.77-16-9.26-40.07-20.82-41.33-11.12-1.21-25.73,1.15-32.57,5.26-2.17,1.31-3.23,2.88-3.08,4.56a5.57,5.57,0,0,0,3.7,4.3c1.47.55,4.12-.35,7.19-1.41,3.93-1.34,8.8-3,13.9-2.66,6,.44,7.46,9.88,8.41,16.13l.19,1.22a7.61,7.61,0,0,1-2.4,6.92c-1.84,1.72-4.58,2.71-6.37,2.3-1.41-.32-5.16-4-11.15-10.07-5-5-10.63-10.7-12.84-11.76-.7-.33-1-.12-1.1-.05-1.52,1-1.06,7.32-.81,10.69C216.09,177.69,216.16,178.64,216.17,179.29Z" fill="#231f20"></path><polygon points="200.57 169.02 201.6 177.19 192.97 175.58 188.37 174.72 192.61 172.74 200.57 169.02" fill="#fff"></polygon><path d="M201.6,177.69h-.09l-13.23-2.47a.49.49,0,0,1-.4-.43.5.5,0,0,1,.28-.52l12.19-5.69a.5.5,0,0,1,.46,0,.51.51,0,0,1,.25.38l1,8.17a.52.52,0,0,1-.5.56ZM190,174.51l11,2.06-.86-6.81Z" fill="#231f20"></path><path d="M265,169.15l-63.41,8a12.46,12.46,0,0,1-1.32-4,12.3,12.3,0,0,1,.29-4.19l63.4-8Z" fill="#1ac2ab"></path><path d="M201.6,177.69a.5.5,0,0,1-.43-.25,12.6,12.6,0,0,1-1.38-4.17,12.85,12.85,0,0,1,.29-4.37.49.49,0,0,1,.42-.37l63.41-8.05a.52.52,0,0,1,.56.44l1,8.17a.46.46,0,0,1-.1.37.48.48,0,0,1-.33.18l-63.4,8.05Zm-.62-8.21a11.66,11.66,0,0,0-.2,3.67,11.46,11.46,0,0,0,1.11,3.5l62.56-7.94-.91-7.17Z" fill="#231f20"></path><path d="M266.72,160.16h10.22a0,0,0,0,1,0,0v8.23a0,0,0,0,1,0,0H266.72a2.28,2.28,0,0,1-2.28-2.28v-3.67a2.28,2.28,0,0,1,2.28-2.28Z" transform="translate(559.91 293.19) rotate(172.77)" fill="#fff"></path><path d="M265,169.65a.51.51,0,0,1-.5-.44l-1-8.17a.5.5,0,0,1,.1-.37.53.53,0,0,1,.33-.19l10.14-1.28a2.79,2.79,0,0,1,3.11,2.41l.46,3.64a2.79,2.79,0,0,1-2.41,3.11l-10.14,1.28Zm-.48-8.24.91,7.18,9.65-1.22a1.8,1.8,0,0,0,1.54-2l-.46-3.64a1.78,1.78,0,0,0-2-1.54Z" fill="#231f20"></path><rect x="266.65" y="160.6" width="1.17" height="8.23" transform="translate(-18.6 34.94) rotate(-7.23)" fill="#231f20"></rect><rect x="268.96" y="160.31" width="1.17" height="8.23" transform="translate(-18.55 35.23) rotate(-7.23)" fill="#231f20"></rect><polygon points="192.61 172.74 192.97 175.58 188.37 174.72 192.61 172.74" fill="#1ac2ab"></polygon><path d="M193,176.08h-.1l-4.59-.86a.49.49,0,0,1-.4-.43.5.5,0,0,1,.28-.52l4.23-2a.5.5,0,0,1,.46,0,.51.51,0,0,1,.25.38l.36,2.83a.5.5,0,0,1-.49.57Zm-3-1.57,2.39.45-.18-1.48Z" fill="#231f20"></path><path d="M217.94,182.28s-6.26-7.77-8.09-10.64c-3-4.68,4.37-8.82,7-6.86,1.89,1.39,11.63,10,13.59,11.85" fill="#fff"></path><path d="M217.94,182.78a.49.49,0,0,1-.39-.19c-.25-.31-6.29-7.82-8.12-10.69a4.58,4.58,0,0,1,1-6.11c1.85-1.73,5-2.71,6.8-1.41s11.65,10,13.63,11.89a.5.5,0,1,1-.69.73c-2-1.88-11.68-10.45-13.54-11.81-1.2-.88-3.83-.25-5.52,1.33a3.67,3.67,0,0,0-.8,4.85c1.8,2.82,8,10.52,8.06,10.6a.49.49,0,0,1-.07.7A.48.48,0,0,1,217.94,182.78Z" fill="#231f20"></path><polygon points="280.72 199.23 246.47 225.22 262.4 267.76 323.43 264.77 280.72 199.23" fill="#231f20"></polygon><path d="M262.4,268.26a.5.5,0,0,1-.47-.32L246,225.4a.49.49,0,0,1,.16-.57l34.25-26a.48.48,0,0,1,.39-.09.49.49,0,0,1,.33.22l42.7,65.54a.49.49,0,0,1-.39.77l-61,3ZM247.07,225.4l15.67,41.85,59.79-2.93L280.59,200Z" fill="#231f20"></path></g></svg>