<svg xmlns="http://www.w3.org/2000/svg" width="294" height="266" viewBox="0 0 294 266"><g id="グループ_102" data-name="グループ 102" transform="translate(-1149 -32)"><g id="合体_27" fill="#fff" data-name="合体 27"><path stroke="none" d="M -808.000244140625 -223.5003051757813 L -899.0001220703125 -223.5003051757813 C -903.6869506835938 -223.5003051757813 -907.5 -227.3133392333984 -907.5 -232.0001983642578 L -907.5 -242.0001068115234 C -907.5 -246.6869659423828 -903.6869506835938 -250.5 -899.0001220703125 -250.5 L -867.9996337890625 -250.5 L -866.4996337890625 -250.5 L -866.4996337890625 -252 L -866.4996337890625 -269.4999084472656 L -840.4998168945313 -269.4999084472656 L -840.4998168945313 -252 L -840.4998168945313 -250.5 L -838.9998168945313 -250.5 L -808.000244140625 -250.5 C -803.3133544921875 -250.5 -799.5003051757813 -246.6869659423828 -799.5003051757813 -242.0001068115234 L -799.5003051757813 -232.0001983642578 C -799.5003051757813 -227.3133392333984 -803.3133544921875 -223.5003051757813 -808.000244140625 -223.5003051757813 Z" transform="translate(2137 505)"/><path fill="#707070" stroke="none" d="M -808.000244140625 -225.0003051757813 C -804.1404418945313 -225.0003051757813 -801.0003051757813 -228.1404418945313 -801.0003051757813 -232.0001831054688 L -801.0003051757813 -242.0001068115234 C -801.0003051757813 -245.85986328125 -804.1404418945313 -249 -808.000244140625 -249 L -838.9998168945313 -249 L -841.9998168945313 -249 L -841.9998168945313 -252 L -841.9998168945313 -267.9999084472656 L -864.9996337890625 -267.9999084472656 L -864.9996337890625 -252 L -864.9996337890625 -249 L -867.9996337890625 -249 L -899.0001220703125 -249 C -902.85986328125 -249 -906 -245.85986328125 -906 -242.0001068115234 L -906 -232.0001831054688 C -906 -228.1404418945313 -902.85986328125 -225.0003051757813 -899.0001220703125 -225.0003051757813 L -808.000244140625 -225.0003051757813 M -808.000244140625 -222.0003051757813 L -899.0001220703125 -222.0003051757813 C -904.5225219726563 -222.0003051757813 -909 -226.4768829345703 -909 -232.0001831054688 L -909 -242.0001068115234 C -909 -247.5225067138672 -904.5225219726563 -252 -899.0001220703125 -252 L -867.9996337890625 -252 L -867.9996337890625 -270.9999084472656 L -838.9998168945313 -270.9999084472656 L -838.9998168945313 -252 L -808.000244140625 -252 C -802.4769287109375 -252 -798.0003051757813 -247.5225067138672 -798.0003051757813 -242.0001068115234 L -798.0003051757813 -232.0001831054688 C -798.0003051757813 -226.4768829345703 -802.4769287109375 -222.0003051757813 -808.000244140625 -222.0003051757813 Z" transform="translate(2137 505)"/></g><g id="前面オブジェクトで型抜き_4" fill="#fff" data-name="前面オブジェクトで型抜き 4"><path stroke="none" d="M -650.9996948242188 -62.50019073486328 L -899.0001220703125 -62.50019073486328 C -903.6869506835938 -62.50019073486328 -907.5 -66.31322479248047 -907.5 -71.00008392333984 L -907.5 -262.9997863769531 C -907.5 -267.6866455078125 -903.6869506835938 -271.4996948242188 -899.0001220703125 -271.4996948242188 L -650.9996948242188 -271.4996948242188 C -646.3128051757813 -271.4996948242188 -642.499755859375 -267.6866455078125 -642.499755859375 -262.9997863769531 L -642.499755859375 -71.00008392333984 C -642.499755859375 -66.31322479248047 -646.3128051757813 -62.50019073486328 -650.9996948242188 -62.50019073486328 Z M -890.500244140625 -253.6134033203125 L -890.500244140625 -252.1134033203125 L -890.5001831054688 -94.88700866699219 L -890.5001831054688 -93.38700866699219 L -889.0001831054688 -93.38700866699219 L -660.9996337890625 -93.38700866699219 L -659.4996337890625 -93.38700866699219 L -659.4996337890625 -94.88700866699219 L -659.4996337890625 -252.1134033203125 L -659.4996337890625 -253.6134033203125 L -660.9996337890625 -253.6134033203125 L -889.000244140625 -253.6134033203125 L -890.500244140625 -253.6134033203125 Z" transform="translate(2058 305)"/><path fill="#707070" stroke="none" d="M -650.9996948242188 -64.00019073486328 C -647.139892578125 -64.00019073486328 -643.999755859375 -67.14033508300781 -643.999755859375 -71.00008392333984 L -643.999755859375 -262.9997863769531 C -643.999755859375 -266.8595581054688 -647.139892578125 -269.9996948242188 -650.9996948242188 -269.9996948242188 L -899.0001220703125 -269.9996948242188 C -902.85986328125 -269.9996948242188 -906 -266.8595581054688 -906 -262.9997863769531 L -906 -71.00008392333984 C -906 -67.14033508300781 -902.85986328125 -64.00019073486328 -899.0001220703125 -64.00019073486328 L -650.9996948242188 -64.00019073486328 M -892.000244140625 -255.1134033203125 L -889.000244140625 -255.1134033203125 L -660.9996337890625 -255.1134033203125 L -657.9996337890625 -255.1134033203125 L -657.9996337890625 -252.1134033203125 L -657.9996337890625 -94.88700866699219 L -657.9996337890625 -91.88700866699219 L -660.9996337890625 -91.88700866699219 L -889.0001831054688 -91.88700866699219 L -892.0001831054688 -91.88700866699219 L -892.0001831054688 -94.88700866699219 L -892.000244140625 -252.1134033203125 L -892.000244140625 -255.1134033203125 M -650.9996948242188 -61.00019073486328 L -899.0001220703125 -61.00019073486328 C -904.5140991210938 -61.00019073486328 -909 -65.48611450195313 -909 -71.00008392333984 L -909 -262.9997863769531 C -909 -268.5137634277344 -904.5140991210938 -272.9996948242188 -899.0001220703125 -272.9996948242188 L -650.9996948242188 -272.9996948242188 C -645.4857177734375 -272.9996948242188 -640.999755859375 -268.5137634277344 -640.999755859375 -262.9997863769531 L -640.999755859375 -71.00008392333984 C -640.999755859375 -65.48611450195313 -645.4857177734375 -61.00019073486328 -650.9996948242188 -61.00019073486328 Z M -889.000244140625 -252.1134033203125 L -889.0001831054688 -252.1134033203125 L -889.0001831054688 -94.88700866699219 L -660.9996337890625 -94.88700866699219 L -660.9996337890625 -252.1134033203125 L -889.000244140625 -252.1134033203125 Z" transform="translate(2058 305)"/></g><g id="長方形_46" fill="#6b6b6b" stroke="#707070" stroke-width="1" data-name="長方形 46" transform="translate(1168 56)"><rect width="25" height="156" stroke="none"/><rect width="24" height="155" x=".5" y=".5" fill="none"/></g><g id="長方形_47" fill="#aeaeae" stroke="#707070" stroke-width="1" data-name="長方形 47" transform="translate(1168 202)"><rect width="230" height="10" stroke="none"/><rect width="229" height="9" x=".5" y=".5" fill="none"/></g><g id="長方形_45" fill="#aeaeae" stroke="#707070" stroke-width="1" data-name="長方形 45" transform="translate(1168 51)"><rect width="230" height="15" stroke="none"/><rect width="229" height="14" x=".5" y=".5" fill="none"/></g><g id="グループ_101" data-name="グループ 101"><g id="楕円形_41" fill="#fff" stroke="#707070" stroke-width="1" data-name="楕円形 41" transform="translate(1175 74)"><circle cx="4.5" cy="4.5" r="4.5" stroke="none"/><circle cx="4.5" cy="4.5" r="4" fill="none"/></g><g id="楕円形_42" fill="#fff" stroke="#707070" stroke-width="1" data-name="楕円形 42" transform="translate(1175 89)"><circle cx="4.5" cy="4.5" r="4.5" stroke="none"/><circle cx="4.5" cy="4.5" r="4" fill="none"/></g><g id="楕円形_43" fill="#fff" stroke="#707070" stroke-width="1" data-name="楕円形 43" transform="translate(1175 105)"><circle cx="4.5" cy="4.5" r="4.5" stroke="none"/><circle cx="4.5" cy="4.5" r="4" fill="none"/></g><g id="楕円形_44" fill="#fff" stroke="#707070" stroke-width="1" data-name="楕円形 44" transform="translate(1175 120)"><circle cx="4.5" cy="4.5" r="4.5" stroke="none"/><circle cx="4.5" cy="4.5" r="4" fill="none"/></g><g id="楕円形_45" fill="#fff" stroke="#707070" stroke-width="1" data-name="楕円形 45" transform="translate(1175 135)"><circle cx="4.5" cy="4.5" r="4.5" stroke="none"/><circle cx="4.5" cy="4.5" r="4" fill="none"/></g><g id="楕円形_46" fill="#fff" stroke="#707070" stroke-width="1" data-name="楕円形 46" transform="translate(1175 151)"><circle cx="4.5" cy="4.5" r="4.5" stroke="none"/><circle cx="4.5" cy="4.5" r="4" fill="none"/></g></g><g id="合体_28" fill="#4b4b4b" data-name="合体 28"><path stroke="none" d="M -704.4998168945313 -137.4998016357422 L -908.5 -137.4998016357422 L -908.5 -261.9999084472656 L -908.5 -272.4996948242188 L -869.50048828125 -272.4996948242188 L -869.50048828125 -261.9999084472656 L -869.50048828125 -261.4999084472656 L -869.00048828125 -261.4999084472656 L -704.4998168945313 -261.4999084472656 L -704.4998168945313 -137.4998016357422 Z" transform="translate(2102 339)"/><path fill="#707070" stroke="none" d="M -704.9998168945313 -137.9998016357422 L -704.9998168945313 -260.9999084472656 L -869.00048828125 -260.9999084472656 L -908 -260.9999084472656 L -908 -137.9998016357422 L -704.9998168945313 -137.9998016357422 M -870.00048828125 -262.9999084472656 L -870.00048828125 -271.9996948242188 L -908 -271.9996948242188 L -908 -262.9999084472656 L -870.00048828125 -262.9999084472656 M -703.9998168945313 -136.9998016357422 L -909 -136.9998016357422 L -909 -261.9999084472656 L -869.00048828125 -261.9999084472656 L -703.9998168945313 -261.9999084472656 L -703.9998168945313 -136.9998016357422 Z M -869.00048828125 -261.9999084472656 L -909 -261.9999084472656 L -909 -272.9996948242188 L -869.00048828125 -272.9996948242188 L -869.00048828125 -261.9999084472656 Z" transform="translate(2102 339)"/></g><g id="長方形_50" fill="#707070" stroke="#707070" stroke-width="1" data-name="長方形 50" transform="translate(1233 66)"><rect width="165" height="12" stroke="none"/><rect width="164" height="11" x=".5" y=".5" fill="none"/></g><line id="線_27" x2="41" fill="none" stroke="#b6ffb1" stroke-linecap="round" stroke-width="3" data-name="線 27" transform="translate(1201.5 85.5)"/><line id="線_28" x2="78" fill="none" stroke="#ffceb2" stroke-linecap="round" stroke-width="3" data-name="線 28" transform="translate(1201.5 97.5)"/><line id="線_29" x2="102" fill="none" stroke="#707070" stroke-linecap="round" stroke-width="3" data-name="線 29" transform="translate(1201.5 117.5)"/><line id="線_30" x2="94" fill="none" stroke="#707070" stroke-linecap="round" stroke-width="3" data-name="線 30" transform="translate(1201.5 138.5)"/><line id="線_31" x2="137" fill="none" stroke="#a28778" stroke-linecap="round" stroke-width="3" data-name="線 31" transform="translate(1201.5 160.5)"/><line id="線_32" x2="114" fill="none" stroke="#65758f" stroke-linecap="round" stroke-width="3" data-name="線 32" transform="translate(1201.5 182.5)"/><g id="長方形_51" fill="#313131" stroke="#707070" stroke-width="3" data-name="長方形 51" transform="translate(1347 126)"><rect width="96" height="172" stroke="none" rx="10"/><rect width="93" height="169" x="1.5" y="1.5" fill="none" rx="8.5"/></g><rect id="長方形_53" width="52" height="38" fill="#5c608f" data-name="長方形 53" rx="3" transform="translate(1378 161)"/><path id="パス_72" fill="none" stroke="#707070" stroke-linecap="round" stroke-width="3" d="M0,0H30.833" data-name="パス 72" transform="translate(1378.167 212)"/><line id="線_34" x2="46.583" fill="none" stroke="#707070" stroke-linecap="round" stroke-width="3" data-name="線 34" transform="translate(1378.167 226.402)"/><line id="線_35" x2="46.833" fill="none" stroke="#707070" stroke-linecap="round" stroke-width="3" data-name="線 35" transform="translate(1378.167 241)"/><path id="長方形_54" fill="#474747" d="M10,0H23a0,0,0,0,1,0,0V168a0,0,0,0,1,0,0H10A10,10,0,0,1,0,158V10A10,10,0,0,1,10,0Z" data-name="長方形 54" transform="translate(1348 128)"/><circle id="楕円形_47" cx="8.5" cy="8.5" r="8.5" fill="#568588" data-name="楕円形 47" transform="translate(1351 143)"/><circle id="楕円形_48" cx="8.5" cy="8.5" r="8.5" fill="#887645" data-name="楕円形 48" transform="translate(1351 166)"/><circle id="楕円形_49" cx="8.5" cy="8.5" r="8.5" fill="#65758f" data-name="楕円形 49" transform="translate(1351 189)"/><circle id="楕円形_50" cx="8.5" cy="8.5" r="8.5" fill="#9dbf71" data-name="楕円形 50" transform="translate(1351 212)"/><circle id="楕円形_51" cx="8.5" cy="8.5" r="8.5" fill="#875992" data-name="楕円形 51" transform="translate(1351 235)"/><circle id="楕円形_52" cx="8.5" cy="8.5" r="8.5" fill="#bcbcbc" data-name="楕円形 52" transform="translate(1351 258)"/><path id="長方形_52" fill="#111" d="M0,0H46a0,0,0,0,1,0,0V9a5,5,0,0,1-5,5H5A5,5,0,0,1,0,9V0A0,0,0,0,1,0,0Z" data-name="長方形 52" transform="translate(1372 129)"/></g></svg>