<svg xmlns="http://www.w3.org/2000/svg" width="396" height="253.333" viewBox="0 0 396 253.333">
  <g id="グループ_87" data-name="グループ 87" transform="translate(-820 -479)">
    <g id="グループ_56" data-name="グループ 56">
      <g id="グループ_33" data-name="グループ 33" transform="translate(1 1)">
        <g id="パス_38" data-name="パス 38" transform="translate(819 478)" fill="#68ffff">
          <path d="M 368 250.5 L 28 250.5 C 24.42185020446777 250.5 20.9515495300293 249.7995452880859 17.68544960021973 248.4181060791016 C 14.53005027770996 247.08349609375 11.69589996337891 245.1725463867188 9.261699676513672 242.7383575439453 C 6.827499866485596 240.3041534423828 4.916500091552734 237.4699554443359 3.581899881362915 234.3145446777344 C 2.20044994354248 231.0484466552734 1.5 227.5781555175781 1.5 224 L 1.5 28 C 1.5 24.42185020446777 2.20044994354248 20.9515495300293 3.581899881362915 17.68544960021973 C 4.916500091552734 14.53005027770996 6.827499866485596 11.69589996337891 9.261699676513672 9.261699676513672 C 11.69589996337891 6.827499866485596 14.53005027770996 4.916500091552734 17.68544960021973 3.581899881362915 C 20.9515495300293 2.20044994354248 24.42185020446777 1.5 28 1.5 L 368 1.5 C 371.5781555175781 1.5 375.0484619140625 2.20044994354248 378.3145446777344 3.581899881362915 C 381.4699401855469 4.916500091552734 384.3041381835938 6.827499866485596 386.7383422851563 9.261699676513672 C 389.1725463867188 11.69589996337891 391.08349609375 14.53005027770996 392.4180908203125 17.68544960021973 C 393.799560546875 20.9515495300293 394.5 24.42185020446777 394.5 28 L 394.5 224 C 394.5 227.5781555175781 393.799560546875 231.0484466552734 392.4180908203125 234.3145446777344 C 391.08349609375 237.4699554443359 389.1725463867188 240.3041534423828 386.7383422851563 242.7383575439453 C 384.3041381835938 245.1725463867188 381.4699401855469 247.08349609375 378.3145446777344 248.4181060791016 C 375.0484619140625 249.7995452880859 371.5781555175781 250.5 368 250.5 Z" stroke="none"/>
          <path d="M 28 3 C 24.62368774414063 3 21.34994506835938 3.66058349609375 18.269775390625 4.963363647460938 C 15.29315185546875 6.222366333007813 12.6192626953125 8.025421142578125 10.32232666015625 10.32231140136719 C 8.025421142578125 12.6192626953125 6.222381591796875 15.29315185546875 4.96337890625 18.26979064941406 C 3.66058349609375 21.34994506835938 3 24.62368774414063 3 28 L 3 224 C 3 227.3763122558594 3.66058349609375 230.6499938964844 4.96337890625 233.7302093505859 C 6.222381591796875 236.7068481445313 8.025421142578125 239.3807373046875 10.32232666015625 241.6776885986328 C 12.6192626953125 243.9745788574219 15.29315185546875 245.7775726318359 18.269775390625 247.0365753173828 C 21.35000610351563 248.3394165039063 24.62368774414063 249 28 249 L 368 249 C 371.3763122558594 249 374.6499938964844 248.3394165039063 377.730224609375 247.0365753173828 C 380.7068481445313 245.7775726318359 383.3807373046875 243.9745788574219 385.6776733398438 241.6776885986328 C 387.9745788574219 239.3807373046875 389.7776184082031 236.7068481445313 391.03662109375 233.7302093505859 C 392.3394165039063 230.6499938964844 393 227.3763122558594 393 224 L 393 28 C 393 24.62368774414063 392.3394165039063 21.34994506835938 391.03662109375 18.26979064941406 C 389.7776184082031 15.29315185546875 387.9745788574219 12.6192626953125 385.6776733398438 10.32231140136719 C 383.3807373046875 8.025421142578125 380.7068481445313 6.222366333007813 377.730224609375 4.963363647460938 C 374.6500549316406 3.66058349609375 371.3763122558594 3 368 3 L 28 3 M 28 0 L 368 0 C 383.4639892578125 0 396 12.53599548339844 396 28 L 396 224 C 396 239.4639434814453 383.4639892578125 252 368 252 L 28 252 C 12.5360107421875 252 0 239.4639434814453 0 224 L 0 28 C 0 12.53599548339844 12.5360107421875 0 28 0 Z" stroke="none" fill="#707070"/>
        </g>
        <g id="パス_37" data-name="パス 37" transform="translate(842 478)" fill="#9d9d9d">
          <path d="M 15.50109958648682 251.8333435058594 C 10.09869956970215 251.8333435058594 6.688399791717529 251.7850494384766 4.443449974060059 251.6768493652344 C 2.780510425567627 251.5966644287109 1.930623769760132 251.4856262207031 1.5 251.3997039794922 L 1.5 1.5 L 346 1.5 C 349.4431457519531 1.5 352.7825012207031 2.174000024795532 355.92529296875 3.503299951553345 C 358.9616394042969 4.78754997253418 361.6888427734375 6.626399993896484 364.03125 8.96875 C 366.3735961914063 11.31114959716797 368.2124633789063 14.03835010528564 369.4967041015625 17.07469940185547 C 370.8259887695313 20.21750068664551 371.5 23.55685043334961 371.5 27 L 371.5 225 C 371.5 228.4431457519531 370.8259887695313 231.7825012207031 369.4967041015625 234.92529296875 C 368.2124633789063 237.9616546630859 366.3735961914063 240.6888427734375 364.03125 243.03125 C 361.6888427734375 245.3735961914063 358.9616394042969 247.2124481201172 355.92529296875 248.4967041015625 C 352.7825012207031 249.8260040283203 349.4431457519531 250.5 346 250.5 C 181.9223937988281 250.5 96.18499755859375 251.2190551757813 50.12385177612305 251.6053466796875 C 33.75469970703125 251.7426452636719 22.94065093994141 251.8333435058594 15.50109958648682 251.8333435058594 Z" stroke="none"/>
          <path d="M 3 3 L 3 250.0810089111328 C 3.495452880859375 250.1234588623047 4.16265869140625 250.1663055419922 5.058685302734375 250.2026062011719 C 7.260498046875 250.2917938232422 10.57864379882813 250.3333435058594 15.5010986328125 250.3333435058594 C 22.93435668945313 250.3333435058594 33.74591064453125 250.2427062988281 50.11123657226563 250.1054077148438 C 96.17465209960938 249.7191009521484 181.9161071777344 249 346 249 C 349.2413024902344 249 352.3840637207031 248.3658447265625 355.3409423828125 247.1152038574219 C 358.198486328125 245.9065551757813 360.7655029296875 244.1756439208984 362.9705505371094 241.9705505371094 C 365.1756591796875 239.7655029296875 366.9065551757813 237.1985015869141 368.1152038574219 234.3409423828125 C 369.3658447265625 231.3840484619141 370 228.2413024902344 370 225 L 370 27 C 370 23.75869750976563 369.3658447265625 20.61595153808594 368.1152038574219 17.6590576171875 C 366.9065551757813 14.80149841308594 365.1756591796875 12.2344970703125 362.9705505371094 10.02944946289063 C 360.7655029296875 7.824356079101563 358.198486328125 6.09344482421875 355.3409423828125 4.884796142578125 C 352.3840637207031 3.6341552734375 349.2413024902344 3 346 3 L 3 3 M 0 0 L 346 0 C 360.9117126464844 0 373 12.08830261230469 373 27 L 373 225 C 373 239.9116973876953 360.9117126464844 252 346 252 C 123.4057922363281 252 43.82156372070313 253.3333282470703 15.5010986328125 253.3333282470703 C 1.338287353515625 253.3333282470703 0 253.0001220703125 0 252 L 0 0 Z" stroke="none" fill="#707070"/>
        </g>
        <g id="グループ_85" data-name="グループ 85" transform="translate(0 32)">
          <line id="線_4" data-name="線 4" x2="198" transform="translate(866.5 508.5)" fill="none" stroke="#707070" stroke-width="3"/>
          <line id="線_5" data-name="線 5" x2="198" transform="translate(866.5 531.5)" fill="none" stroke="#707070" stroke-width="3"/>
          <line id="線_6" data-name="線 6" x2="198" transform="translate(866.5 554.5)" fill="none" stroke="#707070" stroke-width="3"/>
          <line id="線_7" data-name="線 7" x2="178" transform="translate(866.5 577.5)" fill="none" stroke="#707070" stroke-width="3"/>
        </g>
        <g id="楕円形_30" data-name="楕円形 30" transform="translate(867 490)" fill="#b5b1d2" stroke="#707070" stroke-width="1">
          <circle cx="17.5" cy="17.5" r="17.5" stroke="none"/>
          <circle cx="17.5" cy="17.5" r="17" fill="none"/>
        </g>
        <g id="グループ_86" data-name="グループ 86" transform="translate(0 124)">
          <line id="線_4-2" data-name="線 4" x2="174.833" transform="translate(866.5 508.5)" fill="none" stroke="#707070" stroke-width="3"/>
          <line id="線_5-2" data-name="線 5" x2="174.833" transform="translate(866.5 531.5)" fill="none" stroke="#707070" stroke-width="3"/>
          <line id="線_6-2" data-name="線 6" x2="174.833" transform="translate(866.5 554.5)" fill="none" stroke="#707070" stroke-width="3"/>
          <line id="線_7-2" data-name="線 7" x2="154.833" transform="translate(866.5 577.5)" fill="none" stroke="#707070" stroke-width="3"/>
        </g>
      </g>
    </g>
    <g id="長方形_31" data-name="長方形 31" transform="translate(1128 493)" fill="#b5b1d2" stroke="#707070" stroke-width="1">
      <rect width="68" height="68" stroke="none"/>
      <rect x="0.5" y="0.5" width="67" height="67" fill="none"/>
    </g>
    <path id="合体_21" data-name="合体 21" d="M-909-212l12.17-23.151a20.832,20.832,0,0,1-8.719-16.944A20.977,20.977,0,0,1-884.5-273a20.977,20.977,0,0,1,21.049,20.9,20.832,20.832,0,0,1-8.719,16.944L-860-212Z" transform="translate(2047 769)" fill="#fff"/>
    <line id="線_22" data-name="線 22" x2="58" transform="translate(919.5 511.5)" fill="none" stroke="#707070" stroke-width="3"/>
  </g>
</svg>
