<svg xmlns="http://www.w3.org/2000/svg" width="212" height="249" viewBox="0 0 212 249">
  <g id="グループ_89" data-name="グループ 89" transform="translate(-1013 -413)">
    <g id="合体_25" data-name="合体 25" transform="translate(1013 556)" fill="#d9d9d9">
      <path d="M 106 104.5 C 91.88163757324219 104.5 78.17935943603516 103.5816650390625 65.27383422851563 101.7705535888672 C 52.83111190795898 100.0243606567383 41.63983154296875 97.52497100830078 32.01077651977539 94.34183502197266 C 27.28872299194336 92.78080749511719 22.99575042724609 91.06449890136719 19.25113868713379 89.24060821533203 C 15.50297260284424 87.41497039794922 12.2768611907959 85.46833038330078 9.662444114685059 83.45480346679688 C 7.054527759552002 81.44625091552734 5.03927755355835 79.35908508300781 3.672666549682617 77.25125122070313 C 2.324249982833862 75.17150115966797 1.59630560874939 73.047607421875 1.509055614471436 70.93858337402344 L 1.5 70.7197265625 L 1.5 70.50016784667969 L 1.5 1.5 L 210.5 1.5 L 210.5 70.7197265625 L 210.4909515380859 70.93858337402344 C 210.4037017822266 73.047607421875 209.6757507324219 75.17150115966797 208.3273315429688 77.25125122070313 C 206.9607238769531 79.35908508300781 204.9454650878906 81.44625091552734 202.3375244140625 83.45480346679688 C 199.72314453125 85.46833038330078 196.4970245361328 87.41497039794922 192.7488403320313 89.24060821533203 C 189.0042266845703 91.06449890136719 184.7112426757813 92.78080749511719 179.9891967773438 94.34183502197266 C 170.3601684570313 97.52497100830078 159.1688537597656 100.0243606567383 146.7261352539063 101.7705535888672 C 133.8206176757813 103.5816650390625 120.1183624267578 104.5 106 104.5 Z" stroke="none"/>
      <path d="M 106 103 C 120.0488510131836 103 133.6809692382813 102.0865859985352 146.5176696777344 100.2850875854492 C 158.8715057373047 98.55138397216797 169.9745330810547 96.07261657714844 179.5183868408203 92.91761779785156 C 184.1770324707031 91.37755584716797 188.4074096679688 89.68670654296875 192.0919952392578 87.89205932617188 C 195.7490234375 86.11082458496094 198.88818359375 84.21805572509766 201.4222412109375 82.26638031005859 C 203.8950958251953 80.36185455322266 205.7948303222656 78.39997100830078 207.0687103271484 76.43520355224609 C 208.2690582275391 74.58382415771484 208.9161987304688 72.71361541748047 208.9922027587891 70.87655639648438 L 209 70.68814086914063 L 209 3 L 3 3 L 3 70.50014495849609 L 3 70.68814086914063 L 3.007794141769409 70.87655639648438 C 3.083794116973877 72.71361541748047 3.730941295623779 74.58382415771484 4.931293964385986 76.43520355224609 C 6.205147266387939 78.39997100830078 8.104911804199219 80.36185455322266 10.57773494720459 82.26638031005859 C 13.11182308197021 84.21805572509766 16.2509708404541 86.11082458496094 19.90800094604492 87.89205932617188 C 23.59258842468262 89.68670654296875 27.82294082641602 91.37755584716797 32.48161697387695 92.91761779785156 C 42.02544021606445 96.07261657714844 53.12847137451172 98.55138397216797 65.48229217529297 100.2850875854492 C 78.31900024414063 102.0865859985352 91.95111846923828 103 106 103 M 106 106 C 47.95803070068359 106 0.8118235468864441 90.3758544921875 0.01035294122993946 71.00055694580078 L 0 71.00055694580078 L 0 70.50014495849609 L 0 0 L 212 0 L 212 71.00055694580078 L 211.9896545410156 71.00055694580078 C 211.1881713867188 90.3758544921875 164.0419158935547 106 106 106 Z" stroke="none" fill="#707070"/>
    </g>
    <g id="合体_24" data-name="合体 24" transform="translate(1013 496)" fill="#d9d9d9">
      <path d="M 106 104.5 C 91.88163757324219 104.5 78.17935943603516 103.5816650390625 65.27383422851563 101.7705535888672 C 52.83111190795898 100.0243606567383 41.63983154296875 97.52497100830078 32.01077651977539 94.34183502197266 C 27.28872299194336 92.78080749511719 22.99575042724609 91.06449890136719 19.25113868713379 89.24060821533203 C 15.50297260284424 87.41497039794922 12.2768611907959 85.46833038330078 9.662444114685059 83.45480346679688 C 7.054527759552002 81.44625091552734 5.03927755355835 79.35908508300781 3.672666549682617 77.25125122070313 C 2.324249982833862 75.17150115966797 1.59630560874939 73.047607421875 1.509055614471436 70.93858337402344 L 1.5 70.7197265625 L 1.5 70.50016784667969 L 1.5 1.5 L 210.5 1.5 L 210.5 70.7197265625 L 210.4909515380859 70.93858337402344 C 210.4037017822266 73.047607421875 209.6757507324219 75.17150115966797 208.3273315429688 77.25125122070313 C 206.9607238769531 79.35908508300781 204.9454650878906 81.44625091552734 202.3375244140625 83.45480346679688 C 199.72314453125 85.46833038330078 196.4970245361328 87.41497039794922 192.7488403320313 89.24060821533203 C 189.0042266845703 91.06449890136719 184.7112426757813 92.78080749511719 179.9891967773438 94.34183502197266 C 170.3601684570313 97.52497100830078 159.1688537597656 100.0243606567383 146.7261352539063 101.7705535888672 C 133.8206176757813 103.5816650390625 120.1183624267578 104.5 106 104.5 Z" stroke="none"/>
      <path d="M 106 103 C 120.0488510131836 103 133.6809692382813 102.0865859985352 146.5176696777344 100.2850875854492 C 158.8715057373047 98.55138397216797 169.9745330810547 96.07261657714844 179.5183868408203 92.91761779785156 C 184.1770324707031 91.37755584716797 188.4074096679688 89.68670654296875 192.0919952392578 87.89205932617188 C 195.7490234375 86.11082458496094 198.88818359375 84.21805572509766 201.4222412109375 82.26638031005859 C 203.8950958251953 80.36185455322266 205.7948303222656 78.39997100830078 207.0687103271484 76.43520355224609 C 208.2690582275391 74.58382415771484 208.9161987304688 72.71361541748047 208.9922027587891 70.87655639648438 L 209 70.68814086914063 L 209 3 L 3 3 L 3 70.50014495849609 L 3 70.68814086914063 L 3.007794141769409 70.87655639648438 C 3.083794116973877 72.71361541748047 3.730941295623779 74.58382415771484 4.931293964385986 76.43520355224609 C 6.205147266387939 78.39997100830078 8.104911804199219 80.36185455322266 10.57773494720459 82.26638031005859 C 13.11182308197021 84.21805572509766 16.2509708404541 86.11082458496094 19.90800094604492 87.89205932617188 C 23.59258842468262 89.68670654296875 27.82294082641602 91.37755584716797 32.48161697387695 92.91761779785156 C 42.02544021606445 96.07261657714844 53.12847137451172 98.55138397216797 65.48229217529297 100.2850875854492 C 78.31900024414063 102.0865859985352 91.95111846923828 103 106 103 M 106 106 C 47.95803070068359 106 0.8118235468864441 90.3758544921875 0.01035294122993946 71.00055694580078 L 0 71.00055694580078 L 0 70.50014495849609 L 0 0 L 212 0 L 212 71.00055694580078 L 211.9896545410156 71.00055694580078 C 211.1881713867188 90.3758544921875 164.0419158935547 106 106 106 Z" stroke="none" fill="#707070"/>
    </g>
    <g id="合体_23" data-name="合体 23" transform="translate(1013 448)" fill="#d9d9d9">
      <path d="M 106 92.5 C 91.88069152832031 92.5 78.17766571044922 91.5816650390625 65.27153015136719 89.77055358886719 C 52.82814025878906 88.02436065673828 41.63644409179688 85.52497100830078 32.00733184814453 82.34177398681641 C 27.28519439697266 80.78074645996094 22.99225044250488 79.06444549560547 19.24772262573242 77.24052429199219 C 15.49963855743408 75.41486358642578 12.27375030517578 73.46822357177734 9.659639358520508 71.45466613769531 C 7.052000045776367 69.44611358642578 5.037138938903809 67.35894775390625 3.671000003814697 65.25113677978516 C 2.323055505752563 63.17139053344727 1.595666646957397 61.04752731323242 1.509055614471436 58.93852615356445 L 1.5 58.71805953979492 L 1.5 58.50058364868164 L 1.5 1.5 L 210.5 1.5 L 210.5 58.71805953979492 L 210.4909515380859 58.93852615356445 C 210.4043273925781 61.04752731323242 209.6769409179688 63.17139053344727 208.3289947509766 65.25113677978516 C 206.9628601074219 67.35894775390625 204.947998046875 69.44611358642578 202.3403930664063 71.45466613769531 C 199.7262725830078 73.46822357177734 196.5003662109375 75.41486358642578 192.7522735595703 77.24052429199219 C 189.0077819824219 79.06444549560547 184.7147979736328 80.78074645996094 179.9926605224609 82.34177398681641 C 170.3635559082031 85.52497100830078 159.1718597412109 88.02436065673828 146.7284698486328 89.77055358886719 C 133.8223266601563 91.5816650390625 120.1193084716797 92.5 106 92.5 Z" stroke="none"/>
      <path d="M 106 91 C 120.0497970581055 91 133.6827087402344 90.08658599853516 146.5200347900391 88.28511810302734 C 158.8745269775391 86.55138397216797 169.9779357910156 84.07258605957031 179.5218505859375 80.91758728027344 C 184.1805877685547 79.37753295898438 188.4109344482422 77.68667602539063 192.0954132080078 75.89199829101563 C 195.7523193359375 74.11073303222656 198.8912658691406 72.21800231933594 201.4250335693359 70.26632690429688 C 203.8975524902344 68.36185455322266 205.796875 66.40000152587891 207.0702362060547 64.43532562255859 C 208.2701110839844 62.58406066894531 208.9167633056641 60.71393966674805 208.9922027587891 58.87697219848633 L 209 58.68718338012695 L 209 3 L 3 3 L 3 58.50058746337891 L 3 58.68794631958008 L 3.00776481628418 58.87697219848633 C 3.083205938339233 60.71393966674805 3.729852914810181 62.58403015136719 4.92973518371582 64.43532562255859 C 6.203117847442627 66.40000152587891 8.10244083404541 68.36185455322266 10.57497024536133 70.26632690429688 C 13.10873508453369 72.21800231933594 16.24767684936523 74.11073303222656 19.90458869934082 75.89199829101563 C 23.58905792236328 77.68667602539063 27.81941223144531 79.37753295898438 32.47814559936523 80.91758728027344 C 42.02206039428711 84.07258605957031 53.12546920776367 86.55138397216797 65.48000335693359 88.28511810302734 C 78.31729125976563 90.08658599853516 91.95020294189453 91 106 91 M 106 94 C 47.95449829101563 94 0.806147038936615 78.37593841552734 0.01029411796480417 59.00008773803711 L 0 59.00008773803711 L 0 58.50058746337891 L 0 0 L 212 0 L 212 59.00008773803711 L 211.9896697998047 59.00008773803711 C 211.1938781738281 78.37593841552734 164.0455017089844 94 106 94 Z" stroke="none" fill="#707070"/>
    </g>
    <g id="楕円形_34" data-name="楕円形 34" transform="translate(1013 413)" fill="#d9d9d9" stroke="#707070" stroke-width="3">
      <ellipse cx="106" cy="35.5" rx="106" ry="35.5" stroke="none"/>
      <ellipse cx="106" cy="35.5" rx="104.5" ry="34" fill="none"/>
    </g>
  </g>
</svg>
