<svg xmlns="http://www.w3.org/2000/svg" xmlns:xlink="http://www.w3.org/1999/xlink" baseProfile="tiny-ps" version="1.2" viewBox="0 0 300 300"><title>Team Sina</title><g><g fill="#faebe0"><path d="M0 1500V0h3000v3000H0V1500z" transform="matrix(.1 0 0 -.1 0 300)"/></g><g fill="#78dcdf"><path d="M0 1500V0h1351l-12 22-12 23 25-22 24-23h1624v3000H0V1500zm2389 659c11-12 42-58 70-104l50-81 53 7c29 4 73 7 98 7h45l-30-9c-16-5-62-12-101-15l-71-7-39 57c-21 31-48 72-59 91-12 18-29 43-39 54l-19 21h11c6 0 20-10 31-21zm-281-199c51-27 98-50 103-50 21 0 5-20-51-64-33-26-60-51-60-55v-9l-54-4-55-5-61-30-61-30 7 16c3 9 9 37 11 63l5 46 48 26 48 26 77 1 76 1 6 14 6 15-19 14c-11 8-34 19-52 24l-33 10-50-16-50-16-25-29-24-30-1 19c-1 53-12 124-24 174-8 31-15 60-15 63 0 4 35-22 77-58l78-65 93-51zm-955-211 36-74 65-86 65-86 73-62c66-56 98-73 98-53 0 5-11 36-25 70s-25 64-25 67 21-10 48-29c57-40 101-56 159-56h43l-6-25-6-25h10c19 0 90 95 132 178l42 82 25 20c13 10 40 24 60 31l36 12 57-6 57-5 31-16c43-22 100-73 134-120l28-39v-53l16-22 16-23 21 7c12 4 35 16 50 26 16 11 30 19 31 17 6-6 34-138 51-237l16-93-25-54c-77-169-245-312-558-474l-137-71h-96c-120 0-416 26-513 46-72 14-175 52-218 79l-22 14-7 38c-3 21-18 79-31 128l-25 90-40 79c-22 44-53 98-68 120l-28 41 3 59 3 59 17 50 17 50 33 37 33 37 72 33 71 33 59-6 60-5 14-12 14-12 13 5 13 4-42 40-41 40-5 104-5 104 11 90 10 90 22-81c12-45 38-114 58-155zm-288 72 6-19-41-4-40-4v10c0 5 10 46 22 90l22 81 12-68c7-37 16-76 19-86zm88-150 46-58-58-6-58-5-34-17c-19-10-48-28-66-41l-31-24-33-57-33-57-4-78-5-79-13 19-13 19 14 66c15 74 45 186 77 289l21 67 41 10c22 5 55 9 72 10l31 1 46-59zm1316 30 13-9-4-12-4-12-18 21c-19 21-12 28 13 12zM799 1015c46-96 48-102 24-107l-18-4-25 15c-14 8-37 28-52 44l-28 28v35c0 20 5 44 10 55l11 19h37l41-85zm1119-532c-2-40-2-73 0-73s12 10 23 23l19 22-22-47-22-47-25 7c-14 4-75 6-136 6l-110-2-29-11c-35-14-40-10-32 25l7 26 14-18 15-19-6 50c-3 28-7 61-9 75l-3 25h163l75 36 75 35 3-20c2-11 2-53 0-93zm-31 1147-26-20-11-35-11-35-1-64v-65l12-53c7-29 19-65 26-79 17-35 78-87 110-95l26-7 43 21 42 20 18 38c22 47 28 97 18 154l-8 45-30 3c-17 2-36 5-44 8l-13 4 12 15 12 15h48v10c0 23-41 89-70 114l-32 26h-95l-26-20zm-899-141c-10-5-30-31-45-57l-28-47v-200l28-57 28-57 35-22 35-21 42 5 42 6 22 26c12 14 27 43 33 65l11 41-3 62-3 62-40 5-40 5v29l33 10 32 9v14c0 7-6 28-14 46l-13 33-32 27-33 27h-36c-20 0-45-5-54-11zm1166-290c-36-10-60-34-69-70l-6-26 17-18 18-17 58 6c63 6 122 27 150 53l18 16v47l-26 10c-31 12-118 12-160-1zm135-28 15-9-13-16c-7-9-17-14-21-11-5 3-11 1-15-5s-10-8-15-5-11 1-15-5l-6-10h-84l-15 11-15 11 17-6 17-5-6 15-5 14 33 15 34 14h40c22 1 46-3 54-8zm-793-108-7-17 17-13c17-12 54-18 54-8 0 2-5 16-12 30l-11 25h-35l-6-17zm-516-84-35-7-27-31c-32-36-34-44-12-65 23-24 87-24 171 0l53 14 10 20c5 10 10 26 10 34v15l-17 9c-10 5-40 11-68 14l-50 5-35-8zm117-45 4-11-26-11c-15-7-31-10-36-7l-9 6v-21h-80l4 23 3 22 29 7c16 3 47 5 68 5l39-2 4-11zm595-84-23-19-37-7-36-7-38 10-38 10v-8c0-12 41-22 87-21h43l37 19c20 10 39 24 41 31 5 17-9 14-36-8z" transform="matrix(.1 0 0 -.1 0 300)"/></g><g fill="#f2b364"><path d="m1 2298 1-703 14 105c24 173 69 318 150 482 49 97 125 213 177 271 19 20 38 44 41 53l6 16 15-5 14-6-5 13-5 13 84 79 83 79 88 59c49 33 123 77 165 98l76 38 6-18c3-9 9-51 12-93l6-75-52-13c-77-20-187-68-228-101l-37-29-39 2-39 1-39-44c-22-25-61-67-87-94-27-27-48-51-48-53 0-7-64-88-73-91-4-2-7-10-7-17s-24-60-53-117l-53-103-36-125c-55-186-72-350-48-460 16-76 43-160 50-160 4 0 8 19 8 43l1 42 36 100 35 100-6-65-5-65 10-88 10-89 40-117 40-117-3-20c-2-10-1-13 1-6 3 6 9 12 15 12h10l-6-16-6-15 9 6 10 5 7-22c4-13 9-25 13-28 3-3 19-23 36-45 89-121 189-215 230-215h17l-7 18c-9 24-19 152-12 152 3 0 11-17 17-39l10-39V505l-14-52c-7-28-24-70-37-92l-23-41 7-6 6-6 33 20c18 12 62 50 97 86l65 65 13-19 14-20-5-9-6-9 78-37 77-37 100 1c55 0 118 2 139 4 21 3 51 1 65-3l26-7-23-12c-12-7-46-15-75-18l-52-6-8-14-8-13-10 5-9 6 6-15 6-16h-11c-6 0-10-3-9-7 3-15-14-63-23-63h-8l3-59c2-33 0-64-3-70l-6-9-107 42-106 43-89 53C529 325 342 511 208 735c-92 153-167 370-185 535-1 14-7 48-11 75l-9 50-2-697L0 0h1351l-12 22-12 23 25-22 24-23h1624v1135l-36-105c-64-192-178-395-292-520l-50-55-19 11c-10 6-19 18-21 26l-3 14 30 44c17 25 31 48 31 53v7h-130v8c0 5 6 17 14 27l14 19 41-3c23-1 54 0 71 4l29 6 21 36c11 19 39 88 61 154l41 118-7 20c-3 11-22 34-41 50l-35 31h-17c-10 0-23-5-28-10l-10-10 4 62c2 35 5 67 6 72s31-28 66-73l63-82 9 9 8 8 3 105 4 104 18 68c10 37 15 70 12 73s-37 2-76-3l-71-9v22c0 12-3 36-6 53l-6 31h150l6 15 5 15h28c15 0 35 4 42 9l15 10-25 20c-13 11-21 20-16 21 13 0-21 58-109 187l-83 123 8 22 8 22 42-57c23-31 46-57 50-57 5 0 17-3 27-7l17-6-5 27-6 28 14 45c8 26 14 59 14 75v28h-57l-18 43c-10 23-31 70-46 105l-28 62h-29c-16 0-43-5-60-11l-30-10-7-17-6-17-14 25c-8 14-14 28-15 32 0 3 29 10 65 13l65 7 6 10 6 9-85 127-85 128-43 42c-43 41-59 50-59 33 0-5-9-29-20-53l-20-45-59 60-60 59 14 35c8 20 15 42 15 50v14l-82 38c-73 34-255 101-273 101-3 0-16-11-29-25l-23-25-28 25-27 26h-41c-23-1-99 2-168 5l-126 6-98-22-99-22-42-23c-23-12-54-25-68-29l-26-6v29c0 16 3 36 6 45l6 16h22c12 0 32 7 44 16l22 15v29c0 16-5 41-12 55l-11 25H0l1-702zm1239 625c0-14-27-29-36-20-3 3-3 20 1 38l7 33 14-19c8-10 14-25 14-32zm-283-115-4-33v130l4-32c2-18 2-48 0-65zm-257-289-45-9-83-41-83-41-71-66-72-67 62 76c34 42 83 95 109 117l48 41h90l90-1-45-9zm1689-360c11-12 42-58 70-104l50-81 53 7c29 4 73 7 98 7h45l-30-9c-16-5-62-12-101-15l-71-7-39 57c-21 31-48 72-59 91-12 18-29 43-39 54l-19 21h11c6 0 20-10 31-21zm-281-199c51-27 98-50 103-50 21 0 6-20-51-65-33-26-60-51-60-55s-24-10-54-12l-55-5-61-30-61-30 7 16c3 9 9 37 11 63l5 46 48 26 48 26 77 1 76 1 6 14 6 15-19 14c-11 8-34 19-52 24l-33 10-50-16-50-16-25-29-24-30-1 19c-1 53-12 124-24 174-8 31-15 60-15 63 0 4 35-22 77-58l78-65 93-51zm-955-211 36-74 65-86 65-86 73-62c66-56 98-73 98-53 0 5-11 36-25 70s-25 64-25 67 21-10 48-29c57-40 101-56 159-56h43l-6-25-6-25h10c19 0 89 94 127 170 45 90 58 106 109 132l38 20h43c23 0 62-6 86-12l44-12 52-39 52-39 24-43c14-23 28-59 31-79l7-38 18-9 17-10 44 25c23 13 44 23 45 22 5-6 34-144 50-236l16-93-25-54c-77-169-245-312-558-474l-137-71h-96c-121 0-416 26-515 46-41 8-94 24-119 35-24 10-48 19-53 19-6 0-23 9-38 20l-29 20-11 57c-32 150-86 285-159 393l-31 45v40c0 22 9 71 19 109l19 68 38 40 39 40 60 29 60 29h106l36-15c20-8 38-13 41-10s-13 22-35 44l-41 38-5 104-5 104 11 90 10 90 22-81c12-45 38-114 58-155zm-288 72 6-19-41-4-40-4v10c0 5 10 46 22 90l22 81 12-68c7-37 16-76 19-86zm88-150 46-58-58-6-58-5-34-17c-19-10-48-28-66-41l-31-24-33-57-33-57-4-78-5-79-13 19-13 19 14 66c15 74 45 186 77 289l21 67 41 10c22 5 55 9 72 10l31 1 46-59zm1316 30 13-9-4-12-4-12-18 21c-19 21-12 28 13 12zM799 1015c46-96 48-102 24-107l-18-4-25 15c-14 8-37 28-52 44l-28 28v35c0 20 5 44 10 55l11 19h37l41-85zm1119-532c-2-40-2-73 0-73s12 10 23 23l19 22-22-47-22-47-25 7c-14 4-75 6-136 6l-110-2-29-11c-35-14-40-10-32 25l7 26 14-18 15-19-6 50c-3 28-7 61-9 75l-3 25h163l75 36 75 35 3-20c2-11 2-53 0-93zM1213 37l38-22-11-3c-11-4-99 15-140 30l-24 9 14 9 15 10 35-6c19-4 52-16 73-27zm685 1598-26-15-18-45-17-45 6-88c3-48 11-105 17-127l12-40 42-42 42-42 29-7 29-7 41 22 42 22 16 34c9 18 18 48 21 66l6 34-8 50-7 50-26 1c-15 1-34 4-44 8l-17 6 12 15c7 8 21 15 31 15s20 4 23 9l6 9-23 43-23 44-34 23-33 22h-36l-36-1-27-14zm-906-145-23-10-31-66-31-66 5-82 6-83 19-44c11-24 34-57 50-72l30-28 35-5 35-6 31 16 32 16 16 32 17 32 5 62c2 34 2 74-2 88l-6 26h-81l3 18 3 17 33 10 33 9-7 31c-8 35-36 79-67 100l-21 15-31-1c-16 0-40-4-53-9zm1165-290c-37-11-57-28-68-58l-10-25 17-25 16-24 61 7c66 7 121 26 149 52l18 16v47l-26 10c-30 12-118 12-157 0zm132-29 15-9-13-16c-7-9-17-14-21-11-5 3-11 1-15-5s-10-8-15-5-11 1-15-5l-6-10h-84l-15 11-15 11 17-6 17-5-6 15-5 14 33 15 34 14h40c22 1 46-3 54-8zm-793-108-7-17 17-13c17-12 54-18 54-8 0 2-5 16-12 30l-11 25h-35l-6-17zm-516-84-35-7-27-31c-33-37-34-43-8-66l19-18 47 1c26 1 71 8 100 17l54 15 10 20c5 10 10 26 10 34v15l-17 9c-10 5-40 11-68 14l-50 5-35-8zm117-45 4-11-26-11c-15-7-31-10-36-7l-9 6v-21h-80l4 23 3 22 29 7c16 3 47 5 68 5l39-2 4-11zm595-84-23-19-37-7-36-7-38 10-38 10v-8c0-12 39-22 88-21l44 1 36 18c20 10 38 24 40 31 5 17-9 14-36-8zm-382 2131c0-10 7-24 15-31l16-13 8 9c5 5 12 19 16 32l6 22h-61v-19zm538 3c34-7 104-27 155-44l92-31 124-65c141-73 213-122 323-220 190-169 334-392 424-659l34-100v1135l-607-1-608-1 63-14zM320 2349v-10l10 6c6 3 10 8 10 11 0 2-4 4-10 4-5 0-10-5-10-11zm2660-754v-25h20v50h-20v-25zM782 378c-7-7-12-16-12-20v-9l20 11c11 6 20 15 20 20 0 14-14 12-28-2z" transform="matrix(.1 0 0 -.1 0 300)"/></g><g fill="#4ab6b2"><path d="m1 2298 1-703 14 105c24 173 69 318 150 482 49 97 125 213 177 271 19 20 38 44 41 53l6 16 15-5 14-6-5 13-5 13 84 79 83 79 88 59c49 33 123 77 165 98l76 38 6-18c3-9 9-51 12-93l6-75-52-13c-77-20-187-68-228-101l-37-29-39 2-39 1-39-44c-22-25-61-67-87-94-27-27-48-51-48-53 0-7-64-88-73-91-4-2-7-10-7-17s-24-60-53-117l-53-103-36-125c-55-186-72-350-48-460 16-76 43-160 50-160 4 0 8 19 8 43l1 42 36 100 35 100-6-65-5-65 10-88 10-89 40-117 40-117-3-20c-2-10-1-13 1-6 3 6 9 12 15 12h10l-6-16-6-15 9 6 10 5 7-22c4-13 9-25 13-28 3-3 19-23 36-45 89-121 189-215 230-215h17l-7 18c-9 24-19 152-12 152 3 0 11-17 17-39l10-39V505l-14-52c-7-28-24-70-37-92l-23-41 7-6 6-6 33 20c18 12 62 50 97 86l65 65 13-19 14-20-5-9-6-9 78-37 77-37 100 1c55 0 118 2 139 4 21 3 51 1 65-3l26-7-23-12c-12-7-46-15-75-18l-52-6-8-14-8-13-10 5-9 6 6-15 6-16h-11c-6 0-10-3-9-7 3-15-14-63-23-63h-8l3-59c2-33 0-64-3-70l-6-9-107 42-106 43-89 53C529 325 342 511 208 735c-92 153-167 370-185 535-1 14-7 48-11 75l-9 50-2-697L0 0h1350l-30 47c-16 26-29 48-27 49 2 2 218-25 330-42l47-7V19l-22-9-23-9h33l32-1v47l31 7 32 6 13-11c7-6 16-19 19-30l6-19h1209v1135l-36-105c-64-192-178-395-292-520l-50-55-19 11c-10 6-19 18-21 26l-3 14 30 44c17 25 31 48 31 53v7h-130v8c0 5 6 17 14 27l14 19 41-3c23-1 54 0 71 4l29 6 21 36c11 19 39 88 61 154l41 118-7 20c-3 11-22 34-41 50l-35 31h-17c-10 0-23-5-28-10l-10-10 4 62c2 35 5 67 6 72s31-28 66-73l63-82 9 9 8 8 3 105 4 104 18 68c10 37 15 70 12 73s-37 2-76-3l-71-9v22c0 12-3 36-6 53l-6 31h150l6 15 5 15h28c15 0 35 4 42 9l15 10-25 20c-13 11-21 20-16 21 13 0-21 58-109 187l-83 123 8 22 8 22 42-57c23-31 46-57 50-57 5 0 17-3 27-7l17-6-5 27-6 28 14 45c8 26 14 59 14 75v28h-57l-18 43c-10 23-31 70-46 105l-28 62h-29c-16 0-43-5-60-11l-30-10-7-17-6-17-14 25c-8 14-14 28-15 32 0 3 29 10 65 13l65 7 6 10 6 9-85 127-85 128-43 42c-43 41-59 50-59 33 0-5-9-29-20-53l-20-45-59 60-60 59 14 35c8 20 15 42 15 50v14l-82 38c-73 34-255 101-273 101-3 0-16-11-29-25l-23-25-28 25-27 26h-41c-23-1-99 2-168 5l-126 6-98-22-99-22-42-23c-23-12-54-25-68-29l-26-6v29c0 16 3 36 6 45l6 16h22c12 0 32 7 44 16l22 15v29c0 16-5 41-12 55l-11 25H0l1-702zm1239 625c0-14-27-29-36-20-3 3-3 20 1 38l7 33 14-19c8-10 14-25 14-32zm-283-115-4-33v130l4-32c2-18 2-48 0-65zm-257-289-45-9-83-41-83-41-71-66-72-67 62 76c34 42 83 95 109 117l48 41h90l90-1-45-9zm1681-348c13-10 47-58 74-105l50-86 98 6 97 7v-26c0-14-13-65-29-114l-30-88 40-79 39-78v-51l-65 6-64 6-52 22-51 22-9-14c-4-8-27-37-49-66l-42-51-29-13-30-12-10 10-11 11-5 116-6 116-86 27-86 28v30l64 48 63 48 27 5 26 6 2 108 2 108 15 36c17 41 24 43 57 17zm-350-160c31-20 88-52 127-71s71-38 72-41c0-3-27-25-59-49-33-23-62-49-65-56l-5-14h-34c-18 0-56-7-85-15l-51-15-32-27-32-27 7 34c4 19 10 81 13 137l5 101-16 81c-9 44-20 89-23 98l-7 18 65-59c35-33 89-76 120-95zm-926-124c41-143 105-253 217-372 60-65 155-142 163-133 3 3-6 31-19 64-13 32-27 70-31 84l-8 24 48-42 48-42 50-15c28-8 66-15 85-15h34l-6-26-7-26 9 4c5 1 28 25 51 52l42 48 36 72c42 86 56 102 107 128l38 20h43c23 0 62-6 86-12l44-12 52-39 52-39 24-43c14-23 28-59 31-79l7-37 17-10 16-9 21 10c11 6 32 21 46 35l26 24 22-103c12-57 27-137 33-178l11-76-25-54c-14-30-47-84-73-118l-48-64-91-72c-111-88-187-136-353-222l-128-66-200 6-200 5-108 15c-160 23-254 51-319 97l-27 19-11 57c-32 150-86 285-159 393l-31 45v40c0 22 9 71 19 109l19 68 38 40 39 40 60 29 60 29h106l36-15c20-8 38-13 41-11 4 5-33 43-72 74l-16 13v238l12 78c6 43 13 74 14 68 2-5 15-50 29-98zm-240-53 7-31-43-6c-24-3-45-5-46-3-3 2 10 54 34 136l16 55 13-60c6-33 15-74 19-91zm55-112c0-4 22-33 49-63l48-54H885l-54-30-54-30-36-55-35-55-13-50c-7-27-13-72-13-99v-50l-15 20c-8 10-15 29-15 41 0 41 94 388 111 407 10 12 66 24 117 25l42 1v-8zm1349-21 13-9-4-12-4-12-18 21c-19 21-12 28 13 12zM800 1025c22-47 43-99 47-116l6-31-24 7c-13 4-43 16-66 26l-41 20-17 41-16 42 6 33 6 32 22 16c12 8 25 15 29 15s26-38 48-85zm1121-447v-98l-1-75 10 21c5 12 13 25 19 29l11 6v-11c0-6-9-29-21-51l-20-40-32 7c-18 4-70 7-117 7l-85-1-49-11-49-12-9 9-9 9 12 26 12 27 14-18 15-17-5 16c-3 9-8 41-12 72l-7 57h83l84 1 70 34c85 41 85 40 86 13zm513-170c-10-11-54-47-96-79l-77-57-33-7c-72-15-272-87-360-130-51-25-84-38-73-30 60 49 275 137 404 166l44 10 53 35c29 19 72 53 96 74 46 42 73 54 42 18zM1408 166c99-21 255-66 266-77l9-8-34 9c-273 73-313 80-448 83l-100 1 6 10 6 9 111-6 111-6 73-15zm698-41-6-32-43-16c-64-24-115-35-188-43l-66-6-6 16-7 17 13 4c6 2 35 12 62 21 65 21 217 85 230 96l10 9 3-16c2-10 1-32-2-50zm-893-88 38-22-11-3c-11-4-99 15-140 30l-24 9 14 9 15 10 35-6c19-4 52-16 73-27zm762 1903-41-20-18-31c-10-17-16-32-14-35 2-2 21 5 42 15l37 19 85 7 85 7-4 12c-2 6-19 19-38 28l-34 18h-60l-40-20zm-76-305-27-14-16-41-16-40v-136l15-58c19-71 45-109 96-142 47-29 61-30 109-3l37 21 16 33c9 18 18 48 21 66l6 34-8 50-7 50-26 1c-15 1-34 4-44 8l-17 6 12 15c7 8 21 15 31 15s20 4 23 9l6 9-23 43-23 44-34 23-33 22h-36l-36-1-26-14zm-907-145-23-10-31-66-31-66 5-81 6-82 16-40c9-22 31-55 48-72l32-33 33-6 33-6 30 12 30 12 21 35 21 34 6 64c2 35 2 75-2 89l-6 26h-81l3 18 3 17 33 10 33 9-7 31c-8 35-36 79-67 100l-21 15-31-1c-16 0-40-4-53-9zm1170-290c-41-10-69-34-75-67l-5-25 20-20 20-20 55 7c60 7 118 28 146 53l17 15v47l-26 10c-29 12-104 11-152 0zm153-24 19-14-14-17c-7-9-26-23-41-31l-27-14-70-6-69-7-8 12-7 12 6 24 6 24 28 15 27 15 66 1h65l19-14zm-815-111-14-17 19-14c10-8 22-14 27-14 12 0 10 24-5 44l-13 18-14-17zM936 959c-14-11-31-30-37-41l-11-20 18-19 17-19h56l56 1 50 17 50 17 10 28 10 29-20 14-19 14H963l-27-21zm172 5 22-6v-45l-24-11c-14-6-52-17-85-23l-60-13-25 12c-31 14-32 22-8 52l17 22 35 8c43 10 98 12 128 4zm577-120-40-24h-37c-20 0-48 4-62 10l-26 10v-9c0-14 28-21 82-21h50l34 16c32 15 51 32 43 38-2 1-22-8-44-20zm-375 2137c0-10 7-24 15-31l16-13 8 9c5 5 12 19 16 32l6 22h-61v-19zm538 3c34-7 104-27 155-44l92-31 124-65c141-73 213-122 323-220 190-169 334-392 424-659l34-100v1135l-607-1-608-1 63-14zM320 2349v-10l10 6c6 3 10 8 10 11 0 2-4 4-10 4-5 0-10-5-10-11zm2660-754v-25h20v50h-20v-25zM782 378c-7-7-12-16-12-20v-9l20 11c11 6 20 15 20 20 0 14-14 12-28-2z" transform="matrix(.1 0 0 -.1 0 300)"/></g><g fill="#4e514f"><path d="M1 2318c1-376 3-672 6-658 2 14 11 68 19 120l17 95 34 104c123 370 393 690 733 866l90 46 10-6 10-6v-47c1-26 4-66 9-88l8-41-90-27c-99-30-170-63-204-95l-22-21h-88l-84-96c-113-129-149-182-213-310l-54-109-35-115c-20-63-40-139-46-169l-11-54v-242l23-85 24-85 6 51c4 28 23 95 41 150l34 99 1-125 1-125 25-95c42-159 109-281 231-425 52-62 126-125 145-125h8l-5 93-4 92 16-34 15-34 6-121 6-121-13-73-12-73-30-55c-16-31-27-58-24-61 9-10 105 68 152 123l46 54 28-38c31-43 59-63 115-83l40-14h335v66l23-7c35-11 34-14-11-54l-42-38-66-13-65-13-18-25c-10-15-28-52-40-85l-22-58 7-33 6-33-10-6-11-6-65 24c-106 40-257 122-357 193l-92 66-93 94-94 94-65 91c-35 50-89 138-119 197l-54 106-35 105-35 105-20 115-20 115-1-677L0 0l623 1 622 1-83 20-83 20 7 31c3 18 8 34 11 37 7 7 92 5 133-3l36-7 29-50 29-50h26l-30 47c-16 26-29 48-27 49 2 2 218-25 330-42l47-7V19l-22-9-23-9h33l32-1v47l31 7 32 6 13-11c7-6 16-19 19-30l6-19h1209v563l-1 562-34-102c-76-229-199-427-372-600l-82-83-26 26-26 26 12 15 13 15-32 25-33 25 28 47c15 25 47 82 71 126l44 80 43 130 44 130 6 65c4 36 8 94 9 130l3 65 18 65 17 64-4 83-4 83h17c10 0 21 5 24 10l6 10 17-9c37-20 182-21 182-2 0 4-20 17-45 29-24 12-63 38-85 59l-42 37-28 55c-15 31-32 72-37 91l-10 35 13 45c8 25 14 60 14 78v32h-62l-11 33c-27 74-130 269-195 368l-70 105-63 59c-107 98-253 179-444 243l-90 31-78 10c-43 6-104 11-135 11h-57l-89-20-89-20-74-40c-41-22-76-40-78-40-17 0-9 103 16 197l11 42 17 4c9 3-264 5-606 6l-623 1 1-682zm965 489 1-102-7 30c-4 17-8 63-9 103l-1 72h15l1-103zm-137-283c2-2-21-4-53-4h-57l-62-21c-34-11-87-35-117-52l-55-31-67-65c-38-35-68-59-68-53 0 17 89 120 160 185l63 59 126-7c69-4 128-9 130-11zm1550-351c12-10 46-56 75-103l53-85 97 4 96 3v-25c0-14-13-65-29-114l-30-88 40-79 39-78v-51l-65 6-64 6-52 22-51 22-9-14c-4-8-27-37-49-66l-42-51-29-13-30-12-10 10-11 11-5 116-6 116-86 27-86 28v30l64 48 63 48 27 5 26 6 2 108 2 108 15 36c17 41 25 43 55 19zm-366-151c23-16 80-48 127-73 47-24 87-45 90-47s-9-13-25-25c-17-12-49-39-71-59l-41-38h-30c-16 0-56-9-88-20l-59-20-24-23-25-22 7 35c4 19 10 81 13 137l5 101-16 81c-9 44-20 89-23 98l-7 18 62-57c34-32 81-70 105-86zm-908-135c41-143 105-253 217-372 60-65 155-142 163-133 3 3-6 31-19 64-13 32-27 70-31 84l-8 24 48-42 48-42 50-15c28-8 66-15 85-15h34l-6-26-7-26 9 4c5 1 29 26 52 53l43 50 33 70 32 70 29 27 28 27 45 16 45 16 45-6c86-13 169-64 221-137l22-30 11-51 11-52 24-3 23-4 38 31 37 30 22-102c12-56 27-136 33-177l11-76-25-54c-14-30-47-84-73-118l-48-64-91-73c-103-82-222-155-379-234l-107-54-133 2c-180 2-416 26-525 53-26 6-75 24-108 39l-61 27-17 23c-9 13-16 32-16 43 0 10-14 67-31 125l-30 106-41 75c-23 41-53 93-67 115l-27 40 7 55c10 84 26 133 58 178l30 40 75 38 76 37h107l32-16 31-15v27l-32 22c-18 13-36 28-40 34l-8 10v234l12 78c6 43 13 74 14 68 2-5 15-50 29-98zm-240-53 7-31-43-6c-24-3-45-5-46-3-3 2 10 54 34 136l16 55 13-60c6-33 15-74 19-91zm55-112c0-4 22-33 49-63l48-54H895l-47-23c-60-30-98-69-132-136l-27-54-6-76-6-76-13 18c-7 9-14 27-14 39 0 24 60 264 89 353l18 55 34 12c19 7 55 12 82 12l47 1v-8zm1349-21 13-9-4-12-4-12-18 21c-19 21-12 28 13 12zM800 1025c22-47 43-99 47-116l6-31-24 7c-13 4-43 16-66 26l-41 20-17 41-16 42 6 33 6 32 22 16c12 8 25 15 29 15s26-38 48-85zM687 553l-5-18v70l5-17c2-10 2-26 0-35zm1234 25v-98l-1-75 10 21c5 12 13 25 19 29l11 6v-11c0-6-9-29-21-51l-20-40-32 7c-18 4-70 7-117 7l-85-1-49-11-49-12-9 9-9 9 12 26 12 27 14-18 15-17-5 16c-3 9-8 41-12 72l-7 57h83l84 1 70 34c85 41 85 40 86 13zm513-170c-10-11-54-47-96-79l-77-57-33-7c-72-15-272-87-360-130-51-25-84-38-73-30 60 49 275 137 404 166l44 10 53 35c29 19 72 53 96 74 46 42 73 54 42 18zm40-60 10-16-13-15c-32-39-334-219-344-206-2 2-2 23 1 46l4 42 22 8c11 4 24 6 28 5 3-1 21-4 38-7l32-6 26 17c14 9 55 48 92 86l68 70 13-4c7-2 17-11 23-20zM1408 166c99-21 255-66 266-77l9-8-34 9c-273 73-313 80-448 83l-100 1 6 10 6 9 111-6 111-6 73-15zm698-41-6-32-43-16c-64-24-115-35-188-43l-66-6-6 16-7 17 13 4c6 2 35 12 62 21 65 21 217 85 230 96l10 9 3-16c2-10 1-32-2-50zm-131 1815-41-20-18-31c-10-17-16-32-14-34 2-3 22 5 44 15l40 20 83 7 82 6-4 11c-2 6-19 19-38 28l-34 18h-60l-40-20zm-64-302c-13-7-33-25-44-40l-20-27-4-73-5-73 16-69 17-70 25-33 25-33 40-21 40-20 33 11c18 6 43 21 55 34l22 24 15 48 14 48-5 35c-4 20-8 46-11 59l-5 23-19-6-19-6-20 11-20 10 5 14 5 14 29 5 28 6-5 21c-3 12-24 41-47 66l-41 45-40 5-40 5-24-13zm119-168v-20l28-6c15-3 33-7 40-10l12-3v-132l-15-35-14-35-36-15-35-14-25 6-25 6-34 36-35 36-16 67c-8 37-15 79-15 93v26l33 1c17 1 43 5 57 9s37 8 53 9l27 1v-20zm-1026 20c-32-13-63-57-80-118l-16-55 6-69c9-81 25-125 66-172l30-34 33-6 33-6 32 11 31 11 20 32 20 32 7 56 7 56-7 36-7 36h-80l3 17 3 18 30 9c17 6 32 11 33 12 2 2-1 18-8 38l-11 35-40 35-39 36-23-1c-12 0-32-4-43-9zm80-165-6-15 12-15 12-15h68v-125l-20-42-19-43-25-11-24-12-35 7-34 6-15 18c-9 9-23 31-31 48l-16 32-7 80-7 81 24 5c13 3 33 7 44 9 11 3 34 5 52 6l32 1-5-15zm1111-122c-11-2-30-6-43-9-12-2-31-13-42-24l-20-20v-59l21-11 20-12 42 7c23 3 63 13 88 21l47 15 17 19 17 19-4 18-3 17-25 13-25 13-35-1c-19-1-44-3-55-6zm120-27 19-14-14-17c-7-9-26-23-41-31l-27-14-70-6-69-7-8 12-7 12 6 24 6 24 28 15 27 15 66 1h65l19-14zm-814-114-11-21 19-11c11-5 22-10 25-10 11 0 6 26-8 45l-13 19-12-22zM939 957l-34-23-3-22-4-23 14-16 13-16 70 6 70 5 38 18 37 18 5 16c14 45-14 60-111 60h-61l-34-23zm169 7 22-6v-45l-24-11c-14-6-52-17-85-23l-60-13-25 12c-31 14-32 22-8 52l17 22 35 8c43 10 98 12 128 4zm588-116-29-22-52-4-52-4-22 11-21 12v-10c0-14 27-21 81-21h50l28 14c15 8 33 22 40 30 18 21 12 20-23-6zm162 2136c296-65 598-244 799-474 138-157 244-341 308-533l34-102 1 563v562l-602-1-603-1 63-14z" transform="matrix(.1 0 0 -.1 0 300)"/></g><g fill="#0c0c0c"><path d="m1 2338 1-663 19 101c86 466 392 874 811 1085 43 21 79 39 81 39s7-35 11-77c3-43 9-88 12-100l6-22-73-21c-93-28-174-64-215-95l-33-25h-80l-39-42c-140-151-192-224-265-368l-48-95-35-110c-19-60-41-148-49-194l-15-84v-86l1-86 13-60c8-33 18-71 23-84l10-25 6 40c8 46 69 234 77 234 3 0 4-53 2-117l-3-118 25-100 26-100 35-74c20-41 56-104 81-142 53-80 176-214 213-234l27-13-4 91-4 92 12-12c20-19 29-90 30-233V505l-11-38c-6-22-8-41-5-44 2-3 10 15 17 38l11 44 1 150 1 150-25 58-25 58 2 103c1 57 5 131 9 165l7 61 9-6c5-3 28-30 50-61l41-55-25-22c-15-11-31-33-36-47l-10-26 11-42 10-41 39-35 39-35 41-6 41-7 9-24c5-13 15-58 22-101l12-76 33-19c17-10 76-34 130-53l98-34 212-17 211-16 6-37 6-36-21-55c-12-30-26-65-31-78l-9-23-21 26-21 27-99 49c-54 28-102 50-105 50h-7l7-39 6-39-13-5-12-5 18-1 17-1v69l22-8c12-4 24-13 26-19 4-12-30-46-73-73l-30-19h33l45 44 45 43 50-24 51-24 31-36c17-19 32-34 34-32 1 2 10 23 19 47 9 23 24 59 33 80l15 38-2 47c-2 26-5 47-8 47-42 0-366 35-424 45l-77 15-72 30c-40 17-81 38-90 47l-18 16v20c0 12-9 55-21 97l-20 77-24-4-23-5-46 20-45 21-21 33-20 33v85l21 21 21 21 19-5 18-5-41 62c-23 33-51 73-64 88l-22 27 13 68c14 73 65 263 88 328l14 39 26 7c14 4 48 10 75 14l49 6 44-54c24-30 53-60 64-67l20-13-37 41c-20 22-41 50-48 61l-11 21h41v9c0 13-50 51-66 51h-13l-11 43c-6 23-16 58-23 77l-11 35-1 135v135l24 68c12 38 21 71 18 74-11 10-35-54-52-135l-16-82 2-58 1-57-9-25c-6-14-21-65-34-115l-23-90-41-45c-38-41-62-80-49-80 2 0 16 7 29 16l25 16v-10c0-5-13-52-29-105-44-140-69-272-86-452l-15-160 3-122 4-122-17 9c-9 5-49 43-88 85l-73 76-42 67c-53 83-62 104-98 219l-28 93-16 107-16 108 6 75 7 75 30 75c16 41 42 96 59 121 32 51 37 68 13 48-16-13-86-146-99-189-4-14-18-47-30-75-35-77-75-194-75-218v-21l-11 11-12 12-8 93-9 93 9 92 10 92 36 118c47 154 103 278 172 383l56 85 89 89 88 89 173-6 172-6 44-11c50-12 67-6 26 10l-27 10-144 9c-80 4-147 11-150 14-16 16 174 98 257 110l36 5 24-51c13-28 35-64 49-80l24-30 61-28c33-16 69-29 80-28l20 1-45 16c-107 40-144 78-186 189l-26 68-5 66c-3 37-3 78 0 91l7 25 87 26c49 15 102 30 119 33l32 6-16-53-16-54v-300l16-37c9-21 22-38 28-38h11l-16 29-15 30-2 72-3 72 42 33 42 32 68 26c89 34 157 46 259 46h83l73-15c229-48 454-160 591-293l68-67 51-79c85-133 192-356 177-370-2-2-27-7-54-10l-51-7-66 98-67 98-22 14-23 14-18-23c-25-31-37-82-45-188l-6-94-29 6c-81 16-283 142-365 228l-32 33-50 102-51 101-46 44c-54 52-106 85-155 98l-36 10-32-6c-44-9-38-19 12-19h42l67-33 66-32 35-39c44-49 115-171 123-211l7-30h11c7 0 34-23 61-51 61-62 134-113 245-170 47-23 87-44 89-46 2-1-10-14-25-28l-29-27 28 20c16 12 43 26 60 31l32 11-3 69-4 68 11 59 11 58 15 15 14 15 23-11 23-11 59-96 59-96 21 5c12 3 54 6 95 7l75 3 7-25 8-25-2 30-2 30-32 3-33 3v13c0 26-131 276-197 376l-70 105-64 61c-103 98-221 166-397 229-53 20-128 42-165 50l-68 15h-206l-78-20-78-20-73-40c-40-22-76-40-80-40h-7l6 75 7 75 18 55 19 55H0l1-662zm862-468 15-65-9-6-10-6 39-11c22-7 45-18 51-25l11-14-53 5-52 4-73-20-74-20 27 28 27 29 37 10 36 11-29-4-28-4 6 38c3 20 16 68 28 106l21 69 8-30c4-16 14-59 22-95zm1043 1106c164-43 318-113 475-217l94-63 120-120 121-121 67-100c77-116 149-263 188-385l28-85 1 558v557h-592l-593-1 91-23zm-780-715c-10-16-66-255-65-276l1-20 5 19 5 19 8-14 9-14-1 50-1 50 32 93c17 51 31 95 31 98 0 8-19 4-24-5zm735-197 1-19 5 13c3 7 2 16-1 19-3 4-6-2-5-13zm12-154v-125l-15-55c-9-30-25-75-36-100-12-25-23-56-27-70-3-14-24-50-46-80l-41-55 7 20c4 11 14 53 22 93l15 74-11 11-11 11-1-40c0-21-6-59-12-84l-12-45-30-6-30-7 29-1 28-1-6-27-6-28 40 45 41 45 39 81 40 82 30 25c16 14 46 31 66 37l37 13 59-7 59-6 32-16c87-44 150-117 162-189 14-74 35-82 90-33l37 32 8-14c4-7 13-40 20-74 7-33 16-74 21-91l9-30-6 48c-3 27-12 73-20 103-18 72-18 73 14 112l27 32 70-25c39-13 78-25 87-25h18l6-26c4-14 4-63 1-108l-5-81-17-55c-35-115-49-147-91-212-24-36-48-69-53-72l-10-6 5 87 6 88-11 40-11 40 5-49 5-48-37-72-38-71-90-91-90-91-94-62c-52-35-124-78-160-96l-66-33 4-88c2-49 6-81 8-71l5 17 9-5c5-4 9-16 9-27v-22l-57-100c-31-56-78-136-105-178l-49-77 20-20c12-12 21-28 21-36V0h1210v558l-1 557-28-85c-39-122-112-269-188-385l-67-100-101-100c-186-186-279-249-535-364-25-11-76-28-115-37-38-9-80-21-91-26l-21-10-29 15c-16 9-37 25-46 36l-17 20 18 23c24 31 135 217 166 279l26 50 57-45c68-53 110-72 183-82l53-7-16 25c-9 14-24 52-34 84-9 32-19 65-22 72-2 7 11-1 29-18l34-31 35-10 35-11 40 4 40 3 1 13c1 6 2 17 3 22l1 10 25-16 26-17-3-11c-2-7-47-53-100-104l-97-92h-26c-15 0-34 4-43 9l-17 9-75-39c-41-21-71-38-67-39 4 0 35 14 69 30l61 30 48-6 49-7 102 99c57 54 104 103 106 110l3 12-25 20c-15 11-26 23-26 28 0 4 19 39 41 76 23 38 40 71 37 73-6 6-108-177-108-193v-12h-24c-13 0-38 3-56 6l-32 7-34 33-33 34-12 40-12 39-9-6-10-5 6-47c10-74 28-144 43-175l15-29-42 6-42 5-51 35c-62 40-130 103-146 134l-11 22v97l92 49c192 104 337 226 421 352 22 34 42 61 43 60 2-2-4-36-12-76s-13-75-11-77c8-8 114 120 145 176l32 55-6-50c-12-92-86-349-119-415-14-27-23-50-21-50 12 0 57 100 94 207l42 121 10 74c6 40 10 100 9 133l-2 61 19 54 19 55-1 96-2 95 28 12 27 13 27-11 27-10h129v8c0 5-19 17-42 28l-42 19-51 50-51 50-29 78-28 78 12 38c22 74 9 55-22-34l-33-90 38-70 38-70v-64l-11-6-10-7-67 12c-37 7-83 21-103 31l-37 18-26-37c-14-21-43-54-63-75l-38-36-25-3-24-3-7 30c-4 17-7 71-8 122l-1 92-9 5-8 5 5-24 4-25h-9c-5 0-20 11-32 24l-23 25 6 9 6 10-30 5c-16 4-45 13-66 22l-36 15 17 27 18 28-25-22-24-23h-21c-12 0-49-9-82-19l-62-19-36-28-36-27 7 24c3 13 12 62 18 109l11 85-10 65-10 65v-125zm828-147c11-27 38-71 59-100l39-51 46-23c26-13 49-28 52-33l6-9-64 6c-35 3-72 9-82 13l-17 6-6 27c-3 14-21 57-40 94l-36 69 6 24c4 13 9 24 12 24 2 0 14-21 25-47zm-559-24 58-22 45-46 45-46v-17c0-10-3-18-6-18s-33 25-66 55l-61 54-48 16-48 16-58 1h-58l30 14c17 7 48 13 69 14h39l59-21zm-1051 215 1-19 5 13c3 7 2 16-1 19-3 4-6-2-5-13zm-39-19v-30l5 18c2 9 2 23 0 30l-5 12v-30zm943 10-40-14-22-26c-13-14-23-31-23-36v-10l23 12c30 16 36 24 12 16l-20-7 28 24c15 14 42 29 61 34l34 10 26-5c14-3 29-9 31-14l6-8-38-6c-69-11-69-13 0-14l67-1v10c0 14-40 37-75 44l-30 5-40-14zm-894-25c0-8 4-24 9-35l9-20v15c0 8-4 24-9 35l-9 20v-15zm-58-75v-60l4 33c2 18 2 45 0 60l-4 27v-60zm78 7c-2-24 58-143 109-217 29-41 82-104 119-140 67-66 131-114 131-98 0 13-14 28-27 28-7 0-44 28-82 63l-71 63-63 97c-59 90-81 131-106 193l-10 24v-13zm-79-152c-1-47-6-89-10-95l-7-10H873l-48-30-49-30-40-64-40-64-4-86-4-87 16-13 16-13v44c0 24 7 68 16 97l15 52 36 40 37 41 59 30 60 30 51 5 51 5 43-15 44-15-23 24c-12 13-30 26-40 29l-18 6-4 102-3 102-2-85zm-10-120c21-6 39-14 42-18l5-8-59 4-59 4-63-29c-35-17-78-42-96-58l-33-28-21-41c-12-22-27-63-34-91l-13-50 3 65 3 66 23 44c60 121 177 174 302 140zm338 136c0-29 56-221 75-255 21-38 18-19-5 40-12 28-19 57-17 63l4 11 11-22c12-21 92-83 108-83 4 0-11 13-32 29-84 61-106 97-119 189l-7 52h-18v-24zm551-79-34-12-21-40-21-40 1-85 1-85 12-25 11-25-4 25c-2 14-8 50-11 81l-7 55 12 45 12 44 26 28 26 27h66l40-36 40-37 6-23c3-13 10-24 15-24 14 0 11 10-16 55-26 45-55 68-95 78l-25 5-34-11zm121-139c-15-15-16-35-2-43l10-6-6 16-6 15 12 15c15 18 9 20-8 3zm-1039-13-30-13-27-53-26-53v-177l25-54c14-29 33-59 42-66l17-14-27 45-27 46-11 76-11 75 11 54c6 30 20 69 31 86l19 32 25 7 24 6 31-16 31-17 27-39c14-22 24-42 22-43-2-2-16-8-31-15-16-6-28-16-28-22v-11l16 15c8 9 24 16 35 16h19v15c0 25-26 79-47 98-11 10-34 21-50 26l-30 9-30-13zm600-32c9-2 23-2 30 0l12 5h-60l18-5zm483-10 22-4 6-31c10-51 7-85-13-138-23-61-17-66 9-7l20 42v50c0 28-3 60-6 73l-6 22-27-1-26-2 21-4zM1 663 0 0l613 1c336 1 603 3 592 6-11 2-67 18-125 34L975 71l-130 64-130 64-95 71C299 511 92 840 21 1224L2 1325 1 663zm1869 646v-16l38-40c20-21 27-28 15-14s-29 40-37 56l-16 30v-16zm-702-49c2-22 8-42 12-45l9-5-6 37c-3 21-9 41-12 45l-6 7 3-39zm1314 5v-30l5 18c2 9 2 23 0 30l-5 12v-30zm-436-56-18-11-37 6-36 5 15-9c8-5 27-10 41-10h25l20 15c22 17 17 19-10 4zm-875-47c0-12-10-41-21-62l-20-40-25-6c-14-3-40-4-59-2l-35 4 5-8c3-4 25-8 48-8h43l26 20 26 20 11 35c6 19 9 43 7 52l-5 18-1-23zm947-79c7-3 16-2 19 1 4 3-2 6-13 5l-19-1 13-5zm70 0c7-3 16-2 19 1 4 3-2 6-13 5l-19-1 13-5zm-683-23c-9-15 4-30 23-29l17 1-17 5c-10 2-18 9-18 14v10l12-7 11-7-7 11c-9 15-13 15-21 2zm-684-65c0-5 6-21 14-35s14-20 14-15c0 6-6 21-14 35s-14 21-14 15zm187-22c12-2 32-2 45 0l22 4h-90l23-4zm-157-59 1-19 5 13c3 7 2 16-1 19-3 4-6-2-5-13zm50-10 1-19 5 13c3 7 2 16-1 19-3 4-6-2-5-13zm77-41c7-3 16-2 19 1 4 3-2 6-13 5l-19-1 13-5zM821 602c-1-17-85-148-115-180-11-13-34-33-50-45l-29-21 7 30 7 29-27-43c-14-24-23-46-20-49 8-8 77 50 134 112 28 30 53 55 55 55 3 0 15-15 27-34l21-34 35-21c19-12 47-23 62-27l27-5-40 19-40 19-25 39c-14 21-31 51-37 65l-12 27 15 21 15 21-4 18-5 17-1-13zm826-69c18-2 50-2 70 0l38 4h-140l32-4zM968 363c7-3 16-2 19 1 4 3-2 6-13 5l-19-1 13-5zm175 0c9-2 23-2 30 0l12 5h-60l18-5zm517-2-35-7 140-1h140l-25 7c-30 10-171 10-220 1zm-90-14c0-1 27-63 60-137l61-134-12-28c-6-15-9-33-6-40l5-13 1 21c1 12 7 27 15 33l14 12-8 28c-4 15-12 36-18 47-12 21-92 195-92 200 0 1 8 5 18 7l17 5-27 1c-16 0-28 0-28-2zm542-197v-35l5 18c2 9 2 25 0 35l-5 17v-35zm-115 4c-3-4-46-21-94-40-48-18-82-33-75-34 15 0 160 55 182 70l15 10h-11c-6 0-13-3-17-6zm-759-41c7-3 16-2 19 1 4 3-2 6-13 5l-19-1 13-5zm50-10c12-2 30-2 40 0l17 5-40-1h-40l23-4zm95-10c9-2 25-2 35 0l17 5h-70l18-5zm75-10c6-2 18-2 25 0l12 5h-50l13-5zm75-10c9-2 23-2 30 0l12 5h-60l18-5zm70-10c15-2 37-2 50 0l22 4h-100l28-4z" transform="matrix(.1 0 0 -.1 0 300)"/></g></g></svg>