<svg xmlns="http://www.w3.org/2000/svg" width="240" height="173" viewBox="0 0 240 173"><g id="グループ_88" data-name="グループ 88" transform="translate(-1058 -177)"><g id="長方形_32" fill="#ff5e5e" stroke="#707070" stroke-width="3" data-name="長方形 32" transform="translate(1058 177)"><rect width="240" height="173" stroke="none" rx="15"/><rect width="237" height="170" x="1.5" y="1.5" fill="none" rx="13.5"/></g><g id="多角形_17" fill="#fff" data-name="多角形 17"><path stroke="none" d="M 87.33252716064453 81.5 L 8.667474746704102 81.5 C 7.401637554168701 81.5 6.268287658691406 80.84538269042969 5.635762691497803 79.74890899658203 C 5.003237724304199 78.65242004394531 5.003950119018555 77.34361267089844 5.637662410736084 76.24782562255859 L 44.97017669677734 8.235322952270508 C 45.60308837890625 7.140897750854492 46.73573684692383 6.487510204315186 48 6.487510204315186 C 49.26426315307617 6.487510204315186 50.39690017700195 7.140897750854492 51.02981185913086 8.235322952270508 L 90.36235046386719 76.24782562255859 C 90.99606323242188 77.34361267089844 90.99676513671875 78.65242004394531 90.36423492431641 79.74890899658203 C 89.73171234130859 80.84538269042969 88.59836578369141 81.5 87.33252716064453 81.5 Z" transform="translate(1226.5 215.5) rotate(90)"/><path fill="#707070" stroke="none" d="M 48 7.987510681152344 C 47.65309906005859 7.987510681152344 46.78997039794922 8.084823608398438 46.26867294311523 8.986251831054688 L 6.936141967773438 76.99876403808594 C 6.4141845703125 77.90130615234375 6.761512756347656 78.69850921630859 6.93505859375 78.99936676025391 C 7.108612060546875 79.30022430419922 7.624855041503906 79.99999237060547 8.667488098144531 79.99999237060547 L 87.33251190185547 79.99999237060547 C 88.37514495849609 79.99999237060547 88.89138793945313 79.30022430419922 89.06494140625 78.99936676025391 C 89.23848724365234 78.69850921630859 89.5858154296875 77.90130615234375 89.06385803222656 76.99874877929688 L 49.73131561279297 8.986251831054688 C 49.21001434326172 8.084823608398438 48.34690093994141 7.987510681152344 48 7.987510681152344 M 48.00000381469727 4.987510681152344 C 49.68283843994141 4.987510681152344 51.36567306518555 5.819801330566406 52.32831573486328 7.484382629394531 L 91.66084289550781 75.49687957763672 C 93.58855438232422 78.83020782470703 91.18312835693359 82.99999237060547 87.33251190185547 82.99999237060547 L 8.667488098144531 82.99999237060547 C 4.816871643066406 82.99999237060547 2.411445617675781 78.83020782470703 4.339157104492188 75.49687957763672 L 43.67167282104492 7.484382629394531 C 44.63432693481445 5.819801330566406 46.31716918945313 4.987510681152344 48.00000381469727 4.987510681152344 Z" transform="translate(1226.5 215.5) rotate(90)"/></g></g></svg>