<svg xmlns="http://www.w3.org/2000/svg" width="284" height="294.668" viewBox="0 0 284 294.668">
  <g id="グループ_100" data-name="グループ 100" transform="translate(-1124 -406.332)">
    <g id="グループ_93" data-name="グループ 93">
      <g id="グループ_90" data-name="グループ 90">
        <line id="線_23" data-name="線 23" x2="219" transform="translate(1136.5 489.5)" fill="none" stroke="#707070" stroke-linecap="round" stroke-width="25"/>
        <line id="線_24" data-name="線 24" x2="219" transform="translate(1136.5 489.5)" fill="none" stroke="#707070" stroke-linecap="round" stroke-width="25"/>
        <line id="線_25" data-name="線 25" x2="219" transform="translate(1136.5 589.5)" fill="none" stroke="#707070" stroke-linecap="round" stroke-width="25"/>
      </g>
      <g id="グループ_91" data-name="グループ 91" transform="matrix(-0.208, 0.978, -0.978, -0.208, 2032.769, -567.104)">
        <line id="線_23-2" data-name="線 23" x2="241.035" y2="1.273" transform="translate(1114.465 488.227)" fill="none" stroke="#707070" stroke-linecap="round" stroke-width="25"/>
        <path id="パス_68" data-name="パス 68" d="M219,0" transform="translate(1136.5 489.5)" fill="none" stroke="#707070" stroke-linecap="round" stroke-width="25"/>
        <line id="線_25-2" data-name="線 25" x2="241.035" y2="1.273" transform="translate(1136.5 589.5)" fill="none" stroke="#707070" stroke-linecap="round" stroke-width="25"/>
      </g>
    </g>
    <g id="グループ_99" data-name="グループ 99">
      <g id="グループ_92" data-name="グループ 92">
        <g id="グループ_90-2" data-name="グループ 90">
          <line id="線_23-3" data-name="線 23" x2="219" transform="translate(1136.5 489.5)" fill="none" stroke="#aeaeae" stroke-linecap="round" stroke-width="20"/>
          <line id="線_24-2" data-name="線 24" x2="219" transform="translate(1136.5 489.5)" fill="none" stroke="#aeaeae" stroke-linecap="round" stroke-width="20"/>
          <line id="線_25-3" data-name="線 25" x2="219" transform="translate(1136.5 589.5)" fill="none" stroke="#aeaeae" stroke-linecap="round" stroke-width="20"/>
        </g>
        <g id="グループ_91-2" data-name="グループ 91" transform="matrix(-0.208, 0.978, -0.978, -0.208, 2032.769, -567.104)">
          <line id="線_23-4" data-name="線 23" x2="241.035" y2="1.273" transform="translate(1114.465 488.227)" fill="none" stroke="#aeaeae" stroke-linecap="round" stroke-width="20"/>
          <path id="パス_68-2" data-name="パス 68" d="M219,0" transform="translate(1136.5 489.5)" fill="none" stroke="#aeaeae" stroke-linecap="round" stroke-width="20"/>
          <line id="線_25-4" data-name="線 25" x2="241.035" y2="1.273" transform="translate(1136.5 589.5)" fill="none" stroke="#aeaeae" stroke-linecap="round" stroke-width="20"/>
        </g>
      </g>
      <g id="グループ_98" data-name="グループ 98" transform="translate(165.667 42.667)">
        <g id="グループ_96" data-name="グループ 96" transform="translate(1070 486)">
          <g id="グループ_95" data-name="グループ 95">
            <g id="楕円形_38" data-name="楕円形 38" transform="translate(0.333 0.333)" fill="none" stroke="#707070" stroke-width="20">
              <circle cx="86" cy="86" r="86" stroke="none"/>
              <circle cx="86" cy="86" r="76" fill="none"/>
            </g>
            <g id="楕円形_40" data-name="楕円形 40" transform="translate(33.333 0.333)" fill="none" stroke="#707070" stroke-width="20">
              <ellipse cx="52.5" cy="86" rx="52.5" ry="86" stroke="none"/>
              <ellipse cx="52.5" cy="86" rx="42.5" ry="76" fill="none"/>
            </g>
            <g id="グループ_94" data-name="グループ 94" transform="translate(11.215 32.415)">
              <path id="パス_69" data-name="パス 69" d="M0,0S27.772,13.609,57.588,13.814,119.266.821,119.266.821" transform="translate(15.319)" fill="none" stroke="#707070" stroke-width="20"/>
              <path id="パス_70" data-name="パス 70" d="M0,0S34.779,13.609,72.117,13.814,149.356.821,149.356.821" transform="translate(0 39.39)" fill="none" stroke="#707070" stroke-width="20"/>
              <path id="パス_71" data-name="パス 71" d="M0,0S34.779,13.609,72.117,13.814,149.356.821,149.356.821" transform="translate(0 78.781)" fill="none" stroke="#707070" stroke-width="20"/>
            </g>
          </g>
          <line id="線_26" data-name="線 26" y2="155.921" transform="translate(86.577 9.437)" fill="none" stroke="#707070" stroke-width="20"/>
        </g>
        <g id="グループ_97" data-name="グループ 97" transform="translate(1072.089 488.089)">
          <g id="グループ_95-2" data-name="グループ 95" transform="translate(0 0)">
            <g id="楕円形_38-2" data-name="楕円形 38" transform="translate(0.244 0.244)" fill="none" stroke="#5bf9ff" stroke-width="15">
              <circle cx="84" cy="84" r="84" stroke="none"/>
              <circle cx="84" cy="84" r="76.5" fill="none"/>
            </g>
            <g id="楕円形_40-2" data-name="楕円形 40" transform="translate(34.244 0.244)" fill="none" stroke="#5bf9ff" stroke-width="15">
              <ellipse cx="49.5" cy="84" rx="49.5" ry="84" stroke="none"/>
              <ellipse cx="49.5" cy="84" rx="42" ry="76.5" fill="none"/>
            </g>
            <g id="グループ_94-2" data-name="グループ 94" transform="translate(11.588 30.786)">
              <path id="パス_69-2" data-name="パス 69" d="M0,0S26.625,13.609,55.211,13.814,114.342.821,114.342.821" transform="translate(15.319)" fill="none" stroke="#5bf9ff" stroke-width="15"/>
              <path id="パス_70-2" data-name="パス 70" d="M0,0S33.632,13.609,69.74,13.814,144.432.821,144.432.821" transform="translate(0 39.39)" fill="none" stroke="#5bf9ff" stroke-width="15"/>
              <path id="パス_71-2" data-name="パス 71" d="M0,0S33.632,13.609,69.74,13.814,144.432.821,144.432.821" transform="translate(0 78.781)" fill="none" stroke="#5bf9ff" stroke-width="15"/>
            </g>
          </g>
          <line id="線_26-2" data-name="線 26" y2="150.997" transform="translate(84.476 9.81)" fill="none" stroke="#5bf9ff" stroke-width="15"/>
        </g>
      </g>
    </g>
  </g>
</svg>
