<svg xmlns="http://www.w3.org/2000/svg" width="246" height="246.001" viewBox="0 0 246 246.001">
  <g id="前面オブジェクトで型抜き_3" data-name="前面オブジェクトで型抜き 3" transform="translate(909 273)" fill="#c7c7c7">
    <path d="M -765.5000610351563 -28.49998474121094 L -806.500244140625 -28.49998474121094 L -806.5003051757813 -61.82011032104492 L -806.5003051757813 -62.98473358154297 L -807.6286010742188 -63.2733268737793 C -816.1673583984375 -65.45732879638672 -824.322265625 -68.90392303466797 -831.8668823242188 -73.51729583740234 L -832.874755859375 -74.13357543945313 L -833.7100830078125 -73.29823303222656 L -857.4174194335938 -49.59088897705078 L -886.4091186523438 -78.58258056640625 L -862.452392578125 -102.5401382446289 L -861.6307373046875 -103.3617935180664 L -862.220947265625 -104.3627014160156 C -866.6392822265625 -111.8554840087891 -869.9202880859375 -119.9275741577148 -871.9728393554688 -128.3547973632813 L -872.2517700195313 -129.4998321533203 L -873.4302368164063 -129.4998321533203 L -907.5 -129.4998321533203 L -907.5 -170.4999237060547 L -873.180908203125 -170.4999237060547 L -872.0164184570313 -170.4999237060547 L -871.7277221679688 -171.6280822753906 C -869.6023559570313 -179.9339599609375 -866.2802734375 -187.8832092285156 -861.8536987304688 -195.2550201416016 L -861.2505493164063 -196.2594146728516 L -862.0789794921875 -197.0878601074219 L -886.4090576171875 -221.4179534912109 L -857.4174194335938 -250.4087677001953 L -833.0881958007813 -226.0795745849609 L -832.259765625 -225.2511444091797 L -831.2553100585938 -225.8542633056641 C -823.882080078125 -230.2818603515625 -815.932861328125 -233.6039581298828 -807.6284790039063 -235.728271484375 L -806.500244140625 -236.0168914794922 L -806.500244140625 -237.1814880371094 L -806.5003051757813 -271.4996948242188 L -801 -271.4996948242188 L -771.0003051757813 -271.4996948242188 L -765.5001220703125 -271.4996948242188 L -765.5000610351563 -237.4316711425781 L -765.5000610351563 -236.2532653808594 L -764.3551635742188 -235.9743041992188 C -755.92431640625 -233.9200439453125 -747.8516235351563 -230.6384887695313 -740.361328125 -226.2207641601563 L -739.3603515625 -225.6304168701172 L -738.5386352539063 -226.4521331787109 L -714.58203125 -250.4087677001953 L -685.5912475585938 -221.4179992675781 L -709.2985229492188 -197.7116088867188 L -710.1339721679688 -196.8761749267578 L -709.5175170898438 -195.8682708740234 C -704.9052124023438 -188.3270111083984 -701.4580078125 -180.1714172363281 -699.2717895507813 -171.6280517578125 L -698.9830322265625 -170.4999237060547 L -697.818603515625 -170.4999237060547 L -664.5003051757813 -170.4999237060547 L -664.5003051757813 -129.4998321533203 L -697.5693359375 -129.4998321533203 L -698.747802734375 -129.4998321533203 L -699.0267333984375 -128.3548889160156 C -701.13720703125 -119.6920776367188 -704.541748046875 -111.4123916625977 -709.1458740234375 -103.7457656860352 L -709.7490844726563 -102.7413558959961 L -708.9205932617188 -101.9128875732422 L -685.5911865234375 -78.58259582519531 L -714.58203125 -49.59092330932617 L -737.9122314453125 -72.92117309570313 L -738.7406616210938 -73.74961090087891 L -739.7451171875 -73.146484375 C -747.4127197265625 -68.54229736328125 -755.6927490234375 -65.13770294189453 -764.3551635742188 -63.02726364135742 L -765.5001220703125 -62.74832916259766 L -765.5001220703125 -61.56988906860352 L -765.5000610351563 -28.49998474121094 Z M -785.9996948242188 -198.5000762939453 C -814.3970947265625 -198.5000762939453 -837.5000610351563 -175.3975219726563 -837.5000610351563 -147.0006103515625 C -837.5000610351563 -118.6032028198242 -814.3970947265625 -95.50020599365234 -785.9996948242188 -95.50020599365234 C -757.6028442382813 -95.50020599365234 -734.5003051757813 -118.6032028198242 -734.5003051757813 -147.0006103515625 C -734.5003051757813 -175.3975219726563 -757.6028442382813 -198.5000762939453 -785.9996948242188 -198.5000762939453 Z" stroke="none"/>
    <path d="M -767.0000610351563 -29.99999237060547 L -767.0001220703125 -61.56989288330078 L -767.0001220703125 -63.9267578125 L -764.710205078125 -64.48462677001953 C -756.1949462890625 -66.55918884277344 -748.0552368164063 -69.9061279296875 -740.5172729492188 -74.43242645263672 L -738.5084228515625 -75.63869476318359 L -736.8515625 -73.98182678222656 L -714.58203125 -51.7122917175293 L -687.7125244140625 -78.58261871337891 L -709.9812622070313 -100.8522262573242 L -711.63818359375 -102.509162902832 L -710.4317626953125 -104.5179901123047 C -705.9056396484375 -112.0548934936523 -702.5587158203125 -120.1942291259766 -700.4840698242188 -128.7099304199219 L -699.9262084960938 -130.9998321533203 L -697.5693359375 -130.9998321533203 L -666.0003051757813 -130.9998321533203 L -666.0003051757813 -168.9998931884766 L -697.818603515625 -168.9998931884766 L -700.1475830078125 -168.9998931884766 L -700.7249145507813 -171.2561645507813 C -702.8741455078125 -179.6546936035156 -706.262939453125 -187.6720886230469 -710.7971801757813 -195.0855865478516 L -712.0300903320313 -197.1014251708984 L -710.3591918945313 -198.7722625732422 L -687.7125854492188 -221.4180145263672 L -714.58203125 -248.2874298095703 L -737.4779663085938 -225.3914642333984 L -739.1213989257813 -223.7480316162109 L -741.1233520507813 -224.9287567138672 C -748.4868774414063 -229.2716522216797 -756.422607421875 -232.4975891113281 -764.7102661132813 -234.5169525146484 L -767.0000610351563 -235.0748901367188 L -767.0000610351563 -237.4316864013672 L -767.0001220703125 -269.9996948242188 L -771.0003051757813 -269.9996948242188 L -801 -269.9996948242188 L -805.0003051757813 -269.9996948242188 L -805.000244140625 -237.1814880371094 L -805.000244140625 -234.8523254394531 L -807.2567749023438 -234.2750854492188 C -815.4201049804688 -232.1868286132813 -823.2345581054688 -228.9209899902344 -830.4830932617188 -224.5682983398438 L -832.491943359375 -223.3620300292969 L -834.1488647460938 -225.0188903808594 L -857.41748046875 -248.2874755859375 L -884.2877197265625 -221.4179840087891 L -861.018310546875 -198.1485290527344 L -859.3614501953125 -196.4916229248047 L -860.5677490234375 -194.4828186035156 C -864.91943359375 -187.2356262207031 -868.185302734375 -179.4210662841797 -870.2745361328125 -171.2562255859375 L -870.8518676757813 -168.9998931884766 L -873.180908203125 -168.9998931884766 L -906 -168.9998931884766 L -906 -130.9998321533203 L -873.4302368164063 -130.9998321533203 L -871.0732421875 -130.9998321533203 L -870.5154418945313 -128.7097625732422 C -868.4977416992188 -120.4256591796875 -865.2723388671875 -112.4904556274414 -860.9288940429688 -105.124626159668 L -859.7484741210938 -103.1227951049805 L -861.3916625976563 -101.4794921875 L -884.2877807617188 -78.58262634277344 L -857.4174194335938 -51.71226119995117 L -834.770751953125 -74.35892486572266 L -833.10009765625 -76.02959442138672 L -831.0844116210938 -74.79702758789063 C -823.6674194335938 -70.26169586181641 -815.6506958007813 -66.87345886230469 -807.2568969726563 -64.72652435302734 L -805.0003051757813 -64.14932250976563 L -805.0003051757813 -61.82009124755859 L -805.000244140625 -29.99999237060547 L -767.0000610351563 -29.99999237060547 M -785.9996948242188 -200.0000915527344 C -756.7756958007813 -200.0000915527344 -733.0003051757813 -176.2246246337891 -733.0003051757813 -147.0005950927734 C -733.0003051757813 -117.7760620117188 -756.7756958007813 -94.00019073486328 -785.9996948242188 -94.00019073486328 C -815.2241821289063 -94.00019073486328 -839.0000610351563 -117.7760620117188 -839.0000610351563 -147.0005950927734 C -839.0000610351563 -176.2246246337891 -815.2241821289063 -200.0000915527344 -785.9996948242188 -200.0000915527344 M -764.0000610351563 -26.99899291992188 L -764.0001220703125 -26.99999237060547 L -808.000244140625 -26.99999237060547 L -808.0003051757813 -61.82009124755859 C -816.6845092773438 -64.04132843017578 -824.9779663085938 -67.54662322998047 -832.6494140625 -72.23759460449219 L -857.4174194335938 -47.4695930480957 L -888.5303955078125 -78.58259582519531 L -863.5130615234375 -103.6007919311523 C -868.0064697265625 -111.2208938598633 -871.343017578125 -119.4303588867188 -873.4302368164063 -127.9998245239258 L -909 -127.9998245239258 L -909 -171.9998931884766 L -873.180908203125 -171.9998931884766 C -871.0193481445313 -180.4473266601563 -867.640625 -188.531494140625 -863.1396484375 -196.0271911621094 L -888.5303955078125 -221.4179992675781 L -857.4174194335938 -252.5300903320313 L -832.0275268554688 -227.1402282714844 C -824.5289306640625 -231.64306640625 -816.4445190429688 -235.0213623046875 -808.000244140625 -237.1814880371094 L -808.0003051757813 -272.9996948242188 L -801 -272.9996948242188 L -771.0003051757813 -272.9996948242188 L -764.0001220703125 -272.9996948242188 L -764.0000610351563 -237.4316864013672 C -755.4257202148438 -235.3424530029297 -747.2158203125 -232.0049285888672 -739.5993041992188 -227.5127868652344 L -714.58203125 -252.5300903320313 L -683.4699096679688 -221.4179992675781 L -708.2379150390625 -196.6508941650391 C -703.5473022460938 -188.981689453125 -700.041748046875 -180.6874542236328 -697.818603515625 -171.9998931884766 L -663.0003051757813 -171.9998931884766 L -663.0003051757813 -127.9998245239258 L -697.5693359375 -127.9998245239258 C -699.7157592773438 -119.1894607543945 -703.1783447265625 -110.7691268920898 -707.8599243164063 -102.9734954833984 L -683.4699096679688 -78.58259582519531 L -714.58203125 -47.4695930480957 L -738.972900390625 -71.86048889160156 C -746.7706909179688 -67.17816162109375 -755.1914672851563 -63.71592712402344 -764.0001220703125 -61.56989288330078 L -764.0000610351563 -26.99999237060547 L -764.0000610351563 -26.99899291992188 Z M -785.9996948242188 -197.0000915527344 C -813.5700073242188 -197.0000915527344 -836.0000610351563 -174.5703887939453 -836.0000610351563 -147.0005950927734 C -836.0000610351563 -119.430290222168 -813.5700073242188 -97.00019073486328 -785.9996948242188 -97.00019073486328 C -758.429931640625 -97.00019073486328 -736.0003051757813 -119.430290222168 -736.0003051757813 -147.0005950927734 C -736.0003051757813 -174.5703887939453 -758.429931640625 -197.0000915527344 -785.9996948242188 -197.0000915527344 Z" stroke="none" fill="#707070"/>
  </g>
</svg>
